<svg width="320" height="188" viewBox="0 0 320 188" fill="none" xmlns="http://www.w3.org/2000/svg">
<path d="M313.663 100.146L318.052 87.037C318.412 85.962 320 86.2208 320 87.3545V186.815C320 187.367 319.552 187.815 319 187.815H1C0.447715 187.815 0 187.367 0 186.815V164.324C0 164.194 0.0255671 164.064 0.0752582 163.944L7.89238 144.95L13.5721 129.324C13.6119 129.214 13.6323 129.098 13.6323 128.982V116.217C13.6323 114.991 15.4132 114.841 15.6182 116.05L16.361 120.429C16.4426 120.91 16.8592 121.262 17.3469 121.262H22.0409C22.5604 121.262 22.9934 120.864 23.0373 120.346L24.317 105.257C24.3609 104.739 24.7939 104.342 25.3134 104.342H30.5695C31.1218 104.342 31.5695 103.894 31.5695 103.342V85.8359C31.5695 84.7604 33.0351 84.443 33.4799 85.4223L34.8905 88.5271C35.0528 88.8841 35.4088 89.1134 35.801 89.1134H40.8959C41.3252 89.1134 41.7066 88.8394 41.8436 88.4326L47.8425 70.618C47.9795 70.2111 48.3609 69.9371 48.7902 69.9371H56.6793C57.1093 69.9371 57.4911 69.6623 57.6276 69.2546L60.4706 60.7622C60.7071 60.0556 61.6056 59.8466 62.1297 60.3763L64.8796 63.1556C65.4004 63.6819 66.2926 63.4796 66.5353 62.7801L69.4973 54.2425C69.7928 53.3908 70.9759 53.3343 71.3512 54.1539L75.9557 64.2081C76.2956 64.9503 77.3336 64.9945 77.7354 64.2839L81.305 57.9704C81.746 57.1904 82.9113 57.3394 83.1418 58.2052L87.818 75.7679C88.0928 76.8 89.5772 76.7403 89.7682 75.6894L91.5621 65.8185C91.6918 65.1046 92.5148 64.7622 93.1127 65.1734L97.1797 67.9708C97.4316 68.1441 97.5904 68.423 97.6108 68.728L99.6685 99.4604C99.7036 99.9856 100.14 100.394 100.666 100.394H103.036C103.588 100.394 104.036 100.841 104.036 101.394V107.674C104.036 108.675 105.343 109.055 105.88 108.211L106.706 106.913C107.224 106.098 108.482 106.418 108.547 107.382L110.667 138.622C110.746 139.797 112.438 139.892 112.648 138.733L117.246 113.434C117.404 112.565 118.529 112.312 119.043 113.031L123.109 118.714C123.559 119.342 124.522 119.245 124.836 118.538L127.753 111.987C128.16 111.073 129.508 111.256 129.656 112.245L133.057 134.971C133.194 135.886 134.393 136.14 134.889 135.36L136.425 132.946C136.908 132.186 138.071 132.403 138.249 133.285L148.048 181.911C148.271 183.019 149.873 182.964 150.02 181.843L154.26 149.462L166.983 99.455C167.096 99.0118 167.495 98.7016 167.952 98.7016H174.785C175.337 98.7016 175.785 98.2539 175.785 97.7016V93.2158C175.785 92.7866 176.059 92.4052 176.465 92.2681L180.126 91.0348C180.533 90.8977 180.807 90.5164 180.807 90.0871V65.297C180.807 64.7447 181.255 64.297 181.807 64.297H185.678C186.177 64.297 186.599 63.9303 186.669 63.437L188.994 46.9828C189.129 46.0293 190.402 45.7986 190.863 46.6441L191.099 47.0771C191.36 47.5564 191.957 47.7375 192.441 47.4842L194.765 46.2663C195.333 45.9684 196.031 46.2755 196.195 46.8959L199.308 58.6414C199.403 58.9982 199.686 59.2738 200.045 59.3586L205.672 60.6855C206.206 60.8115 206.742 60.4835 206.873 59.9507L214.159 30.2708C214.333 29.5649 215.177 29.2738 215.749 29.723L220.122 33.1612C220.219 33.2374 220.301 33.3309 220.364 33.4369L224.064 39.6686C224.518 40.4336 225.67 40.2693 225.892 39.4079L235.593 1.7854C235.792 1.01688 236.763 0.774397 237.299 1.35967L247.718 12.7353C248.255 13.3217 249.229 13.077 249.425 12.3064L251.734 3.2294C251.979 2.26807 253.323 2.21105 253.648 3.1482L258.664 17.606C258.853 18.1512 259.464 18.4236 259.996 18.2005L268.849 14.4888C269.36 14.2745 269.941 14.4941 270.133 15.014C277.065 33.7757 274.825 88.9996 272.73 115.691C272.684 116.273 273.146 116.75 273.73 116.75H277.386C277.938 116.75 278.386 116.302 278.386 115.75V101.394C278.386 100.841 278.833 100.394 279.386 100.394H286.713C287.265 100.394 287.713 99.9459 287.713 99.3936V73.7376C287.713 72.7097 289.078 72.3507 289.583 73.2455L293.338 79.8852C293.413 80.0194 293.457 80.1694 293.466 80.3233L294.457 98.6331C294.52 99.808 296.208 99.9274 296.436 98.7731L297.929 91.228C298.164 90.0419 299.91 90.2131 299.91 91.4221V138.131C299.91 139.131 301.217 139.512 301.754 138.668L305.509 132.764C305.602 132.619 305.655 132.452 305.664 132.279L307.579 95.1431C307.634 94.0832 309.084 93.8271 309.498 94.8042L311.794 100.219C312.154 101.067 313.371 101.019 313.663 100.146Z" fill="url(#paint0_linear_205_2339)"/>
<path d="M320 81.2173L313.663 100.146C313.371 101.019 312.154 101.067 311.794 100.219L309.498 94.8042C309.084 93.8271 307.634 94.0832 307.579 95.1431L305.664 132.279C305.655 132.452 305.602 132.619 305.509 132.764L301.754 138.668C301.217 139.512 299.91 139.131 299.91 138.131V91.4221C299.91 90.2131 298.164 90.0419 297.929 91.228L296.436 98.7731C296.208 99.9274 294.52 99.808 294.457 98.6331L293.466 80.3233C293.457 80.1694 293.413 80.0194 293.338 79.8852L289.583 73.2455C289.078 72.3507 287.713 72.7097 287.713 73.7376V99.3936C287.713 99.9459 287.265 100.394 286.713 100.394H279.386C278.833 100.394 278.386 100.841 278.386 101.394V115.75C278.386 116.302 277.938 116.75 277.386 116.75H273.73C273.146 116.75 272.684 116.273 272.73 115.691C274.825 88.9996 277.065 33.7757 270.133 15.014C269.941 14.4941 269.36 14.2745 268.849 14.4888L259.996 18.2005C259.464 18.4236 258.853 18.1512 258.664 17.606L253.648 3.1482C253.323 2.21105 251.979 2.26807 251.734 3.2294L249.425 12.3064C249.229 13.077 248.255 13.3217 247.718 12.7353L237.299 1.35967C236.763 0.774397 235.792 1.01688 235.593 1.7854L225.892 39.4079C225.67 40.2693 224.518 40.4336 224.064 39.6686L220.364 33.4369C220.301 33.3309 220.219 33.2374 220.122 33.1612L215.749 29.723C215.177 29.2738 214.333 29.5649 214.159 30.2708L206.873 59.9507C206.742 60.4835 206.206 60.8115 205.672 60.6855L200.045 59.3586C199.686 59.2738 199.403 58.9982 199.308 58.6414L196.195 46.8959C196.031 46.2755 195.333 45.9684 194.765 46.2663L192.441 47.4842C191.957 47.7375 191.36 47.5564 191.099 47.0771L190.863 46.6441C190.402 45.7986 189.129 46.0293 188.994 46.9828L186.669 63.437C186.599 63.9303 186.177 64.297 185.678 64.297H181.807C181.255 64.297 180.807 64.7447 180.807 65.297V90.0871C180.807 90.5164 180.533 90.8977 180.126 91.0348L176.465 92.2681C176.059 92.4052 175.785 92.7866 175.785 93.2158V97.7016C175.785 98.2539 175.337 98.7016 174.785 98.7016H167.952C167.495 98.7016 167.096 99.0118 166.983 99.455L154.26 149.462L150.02 181.843C149.873 182.964 148.271 183.019 148.048 181.911L138.249 133.285C138.071 132.403 136.908 132.186 136.425 132.946L134.889 135.36C134.393 136.14 133.194 135.886 133.057 134.971L129.656 112.245C129.508 111.256 128.16 111.073 127.753 111.987L124.836 118.538C124.522 119.245 123.559 119.342 123.109 118.714L119.043 113.031C118.529 112.312 117.404 112.565 117.246 113.434L112.648 138.733C112.438 139.892 110.746 139.797 110.667 138.622L108.547 107.382C108.482 106.418 107.224 106.098 106.706 106.913L105.88 108.211C105.343 109.055 104.036 108.675 104.036 107.674V101.394C104.036 100.841 103.588 100.394 103.036 100.394H100.666C100.14 100.394 99.7036 99.9856 99.6685 99.4604L97.6108 68.7279C97.5904 68.423 97.4316 68.1441 97.1797 67.9708L93.1127 65.1734C92.5148 64.7622 91.6918 65.1046 91.5621 65.8185L89.7682 75.6894C89.5772 76.7403 88.0928 76.8 87.818 75.7679L83.1418 58.2052C82.9113 57.3394 81.746 57.1904 81.305 57.9704L77.7354 64.2839C77.3336 64.9945 76.2956 64.9503 75.9557 64.2081L71.3512 54.1539C70.9759 53.3343 69.7928 53.3908 69.4973 54.2425L66.5353 62.7801C66.2926 63.4796 65.4004 63.6819 64.8796 63.1556L62.1297 60.3763C61.6056 59.8466 60.7071 60.0556 60.4706 60.7622L57.6276 69.2546C57.4911 69.6623 57.1093 69.9371 56.6793 69.9371H48.7902C48.3609 69.9371 47.9795 70.2111 47.8425 70.618L41.8436 88.4326C41.7066 88.8394 41.3252 89.1134 40.8959 89.1134H35.801C35.4088 89.1134 35.0528 88.8841 34.8905 88.5271L33.4799 85.4223C33.0351 84.443 31.5695 84.7604 31.5695 85.8359V103.342C31.5695 103.894 31.1218 104.342 30.5695 104.342H25.3134C24.7939 104.342 24.3609 104.739 24.317 105.257L23.0373 120.346C22.9934 120.864 22.5604 121.262 22.0409 121.262H17.3469C16.8592 121.262 16.4426 120.91 16.361 120.429L15.6182 116.05C15.4132 114.841 13.6323 114.991 13.6323 116.217V128.982C13.6323 129.098 13.6119 129.214 13.5721 129.324L7.89238 144.95L0 164.127" stroke="#D46BFE" stroke-width="2"/>
<defs>
<linearGradient id="paint0_linear_205_2339" x1="160" y1="-86.4746" x2="160" y2="187.815" gradientUnits="userSpaceOnUse">
<stop stop-color="#D46BFE"/>
<stop offset="1" stop-color="#282838" stop-opacity="0"/>
<stop offset="1" stop-color="#C4C4C4" stop-opacity="0"/>
</linearGradient>
</defs>
</svg>
