<svg width="20" height="20" viewBox="0 0 20 20" fill="none" xmlns="http://www.w3.org/2000/svg">
<path d="M19.7344 10.916L10.659 0.457018C10.577 0.362378 10.4755 0.286477 10.3616 0.234458C10.2477 0.182439 10.1239 0.155518 9.99865 0.155518C9.87341 0.155518 9.74962 0.182439 9.63569 0.234458C9.52176 0.286477 9.42034 0.362378 9.3383 0.457018L0.265644 10.916C0.238228 10.9475 0.220451 10.9863 0.214432 11.0276C0.208413 11.069 0.214404 11.1112 0.231692 11.1492C0.24898 11.1872 0.276837 11.2195 0.311944 11.2421C0.34705 11.2648 0.387928 11.2769 0.429706 11.2769H2.64455C2.77033 11.2769 2.89064 11.2222 2.97541 11.1265L8.96096 4.22772V19.625C8.96096 19.7453 9.0594 19.8437 9.17971 19.8437H10.8203C10.9406 19.8437 11.0391 19.7453 11.0391 19.625V4.22772L17.0246 11.1265C17.1067 11.2222 17.227 11.2769 17.3555 11.2769H19.5703C19.7563 11.2769 19.8574 11.0582 19.7344 10.916Z" fill="#D46BFE"/>
</svg>
