<svg aria-hidden="true" style="position: absolute; width: 0; height: 0; overflow: hidden;" version="1.1"
    xmlns="http://www.w3.org/2000/svg" xmlns:xlink="http://www.w3.org/1999/xlink">
    <defs>
        <symbol id="01" viewBox="0 0 38 38" fill="none">
            <path
                d="M27.0117 18.3192C27.9458 17.2267 28.5 15.8017 28.5 14.25C28.5 11.305 26.4892 8.81917 23.75 8.1225V4.75H20.5833V7.91667H17.4167V4.75H14.25V7.91667H9.5V11.0833H12.6667V26.9167H9.5V30.0833H14.25V33.25H17.4167V30.0833H20.5833V33.25H23.75V30.0833C27.2492 30.0833 30.0833 27.2492 30.0833 23.75C30.0833 21.4542 28.8483 19.4275 27.0117 18.3192ZM15.8333 11.0833H22.1667C23.9083 11.0833 25.3333 12.5083 25.3333 14.25C25.3333 15.9917 23.9083 17.4167 22.1667 17.4167H15.8333V11.0833ZM23.75 26.9167H15.8333V20.5833H23.75C25.4917 20.5833 26.9167 22.0083 26.9167 23.75C26.9167 25.4917 25.4917 26.9167 23.75 26.9167Z"
                fill="currentColor" />
            <circle cx="19" cy="19" r="18.5" stroke="currentColor" />
        </symbol>
        <symbol id="02" viewBox="0 0 31 32">
            <path fill="none" stroke="currentColor" stroke-linejoin="round" stroke-linecap="round"
                stroke-miterlimit="10" stroke-width="0.8205"
                d="M24.249 7.643v8.682c0 0 0 0.864-0.288 2.194-0.599-0.325-1.255-0.56-1.948-0.686-0.385-0.071-0.782-0.107-1.187-0.107-3.633 0-6.577 2.944-6.577 6.577 0 1.041 0.242 2.026 0.673 2.901 0.342 0.697 0.804 1.323 1.359 1.854-1.057 0.641-2.254 1.229-3.61 1.737-11.577-4.341-11.577-14.47-11.577-14.47v-8.682c5.788 0 11.577-5.788 11.577-5.788s5.788 5.788 11.577 5.788z">
            </path>
            <path fill="none" stroke="currentColor" stroke-linejoin="round" stroke-linecap="round"
                stroke-miterlimit="10" stroke-width="0.8205"
                d="M27.404 24.303c0 3.633-2.944 6.577-6.577 6.577-1.762 0-3.363-0.694-4.544-1.821-0.555-0.531-1.017-1.158-1.359-1.854-0.431-0.875-0.673-1.86-0.673-2.901 0-3.633 2.944-6.577 6.577-6.577 0.405 0 0.802 0.037 1.187 0.107 0.693 0.126 1.348 0.361 1.948 0.686 0.736 0.399 1.387 0.935 1.919 1.574l-4.716 4.715-0.060-0.060-2.891-2.891-1.771 1.771 4.722 4.722 5.958-5.957c0.183 0.604 0.282 1.245 0.282 1.909z">
            </path>
            <path fill="none" stroke="currentColor" style="stroke: var(--color1, currentColor)" stroke-linejoin="round"
                stroke-linecap="round" stroke-miterlimit="10" stroke-width="0.8205"
                d="M30.019 19.497l-8.854 8.854-4.722-4.722 1.771-1.771 2.951 2.951 7.084-7.083 1.771 1.771z"></path>
            <path fill="none" stroke="currentColor" style="stroke: var(--color1, currentColor)" stroke-linejoin="round"
                stroke-linecap="round" stroke-miterlimit="10" stroke-width="0.8205"
                d="M22.19 9.187v7.138c0 0 0 0.583-0.177 1.508-0.385-0.071-0.782-0.107-1.187-0.107-3.633 0-6.577 2.944-6.577 6.577 0 1.041 0.242 2.026 0.674 2.901-0.684 0.37-1.432 0.712-2.251 1.019-9.518-3.569-9.518-11.898-9.518-11.898v-7.138c4.759 0 9.518-4.759 9.518-4.759s4.758 4.759 9.518 4.759z">
            </path>
        </symbol>
        <symbol id="03" viewBox="0 0 27 32">
            <path fill="none" stroke="currentColor" style="stroke: var(--color1, currentColor)" stroke-linejoin="miter"
                stroke-linecap="butt" stroke-miterlimit="4" stroke-width="0.7619"
                d="M21.249 31.159c0.466 0 1.397-0.281 1.397-1.407v-7.502c0-0.938-0.559-2.813-2.794-2.813h-6.984v-7.971c0-1.876-3.259-2.344-3.259 0v12.659c-0.776-0.156-2.514-0.75-3.259-1.875-0.465-0.938-2.794-1.407-2.328 1.875 0.2 1.407 1.024 4.032 5.122 7.033M6.815 14.749l-3.725 3.282-2.328-2.813 11.175-9.846 3.725 3.282 5.587-5.158-2.328-2.813h6.984l-0.466 7.033-1.862-1.875-7.915 7.033">
            </path>
        </symbol>
        <symbol id="04" viewBox="0 0 30 32">
            <path fill="currentColor" style="fill: var(--color1, currentColor)"
                d="M24.96 17.193h-0.703l-1.857 3.196-1.857-3.196h-0.703l1.877 3.196h-1.793v0.581h2.167v0.872h-2.167v0.581h2.167v1.162h0.619v-1.162h2.167v-0.581h-2.167v-0.872h2.167v-0.581h-1.793l1.877-3.196z">
            </path>
            <path fill="none" stroke="currentColor" style="stroke: var(--color1, currentColor)" stroke-linejoin="miter"
                stroke-linecap="butt" stroke-miterlimit="4" stroke-width="0.64"
                d="M29.12 20.388c0 3.338-2.85 6.072-6.4 6.072s-6.4-2.733-6.4-6.072c0-3.338 2.85-6.072 6.4-6.072s6.4 2.733 6.4 6.072z">
            </path>
            <path fill="currentColor" style="fill: var(--color1, currentColor)"
                d="M14.911 10.268c-1.226 0-2.148-0.612-2.525-1.598h3.203v-0.533h-3.346c-0.030-0.177-0.045-0.354-0.045-0.533 0-0.088 0.003-0.177 0.009-0.266h3.382v-0.533h-3.311c0.206-0.972 0.873-1.864 2.633-1.864 1.307 0 1.876 0.439 2.417 1.196l0.591-0.261c-0.545-0.762-1.287-1.467-3.009-1.467-2.155 0-3.391 1.165-3.391 3.196 0 1.882 1.395 3.196 3.391 3.196 1.722 0 2.464-0.705 3.009-1.467l-0.591-0.261c-0.541 0.757-1.111 1.196-2.417 1.196z">
            </path>
            <path fill="none" stroke="currentColor" style="stroke: var(--color1, currentColor)" stroke-linejoin="miter"
                stroke-linecap="butt" stroke-miterlimit="4" stroke-width="0.64"
                d="M21.44 7.605c0 3.338-2.85 6.072-6.4 6.072s-6.4-2.733-6.4-6.072c0-3.338 2.85-6.072 6.4-6.072s6.4 2.733 6.4 6.072z">
            </path>
            <path fill="currentColor" style="fill: var(--color1, currentColor)"
                d="M9.6 22.151c0-1.475-1.31-1.643-2.362-1.778-1.147-0.147-1.796-0.275-1.796-1.186 0-0.764 0.869-1.036 1.612-1.036 0.371-0.011 0.739 0.059 1.074 0.205s0.628 0.364 0.855 0.634l0.539-0.401c-0.242-0.288-0.544-0.528-0.888-0.708s-0.722-0.295-1.114-0.339v-0.989h-0.693v0.966c-1.252 0.070-2.079 0.722-2.079 1.668 0 1.512 1.327 1.682 2.393 1.819 1.127 0.145 1.765 0.269 1.765 1.145 0 0.969-1.085 1.114-1.732 1.114-1.188 0-1.69-0.308-2.156-0.84l-0.539 0.401c0.275 0.334 0.63 0.604 1.038 0.789s0.856 0.28 1.311 0.277v0.97h0.693v-0.973c1.291-0.097 2.079-0.744 2.079-1.739z">
            </path>
            <path fill="none" stroke="currentColor" style="stroke: var(--color1, currentColor)" stroke-linejoin="miter"
                stroke-linecap="butt" stroke-miterlimit="4" stroke-width="0.64"
                d="M13.12 20.388c0 3.353-2.722 6.072-6.080 6.072s-6.080-2.719-6.080-6.072c0-3.353 2.722-6.072 6.080-6.072s6.080 2.719 6.080 6.072z">
            </path>
            <path fill="none" stroke="currentColor" style="stroke: var(--color1, currentColor)" stroke-linejoin="miter"
                stroke-linecap="butt" stroke-miterlimit="4" stroke-width="0.64"
                d="M2.509 12.718c-1.22-2.051-0.917-6.445 4.531-6.445M7.040 6.273l-1.51-0.586M7.040 6.273l-1.208 0.879">
            </path>
            <path fill="none" stroke="currentColor" style="stroke: var(--color1, currentColor)" stroke-linejoin="miter"
                stroke-linecap="butt" stroke-miterlimit="4" stroke-width="0.64"
                d="M18.58 27.16c-0.875 2.219-4.537 4.674-7.876 0.374M10.704 27.534l0.462 1.551M10.704 27.534l1.436 0.415">
            </path>
            <path fill="none" stroke="currentColor" style="stroke: var(--color1, currentColor)" stroke-linejoin="miter"
                stroke-linecap="butt" stroke-miterlimit="4" stroke-width="0.64"
                d="M22.746 6.197c2.388-0.029 6.047 2.429 3.323 7.141M26.069 13.338l1.263-1.013M26.069 13.338l-0.158-1.484">
            </path>
        </symbol>
        <symbol id="05" viewBox="0 0 31 32">
            <path fill="currentColor" style="fill: var(--color1, currentColor)"
                d="M14.615 20.71v0.974h0.974v-0.974h0.974v0.974h0.974v-1.064c0.227-0.078 0.431-0.212 0.593-0.389s0.278-0.391 0.337-0.624c0.059-0.233 0.059-0.476 0-0.709s-0.174-0.447-0.336-0.624c0.162-0.177 0.278-0.392 0.336-0.624s0.058-0.476-0-0.709c-0.059-0.233-0.175-0.447-0.337-0.624s-0.366-0.31-0.593-0.389v-1.064h-0.974v0.974h-0.974v-0.974h-0.974v0.974h-1.462v0.974h0.487v2.923h-0.487v0.974h1.462zM17.051 19.736h-2.436v-0.974h2.436c0.129 0 0.253 0.051 0.344 0.143s0.143 0.215 0.143 0.344c0 0.129-0.051 0.253-0.143 0.345s-0.215 0.143-0.344 0.143zM14.615 16.813h2.436c0.129 0 0.253 0.051 0.344 0.143s0.143 0.215 0.143 0.344c0 0.129-0.051 0.253-0.143 0.345s-0.215 0.143-0.344 0.143h-2.436v-0.974z">
            </path>
            <path fill="currentColor" style="fill: var(--color1, currentColor)"
                d="M26.165 21.34l-1.319-1.319v-1.26h1.462v-0.974h-1.462v-1.26l1.319-1.319-0.689-0.689-0.63 0.63v-11.003c-0.001-0.646-0.258-1.265-0.714-1.722s-1.076-0.714-1.722-0.714h-13.641c-0.646 0.001-1.265 0.258-1.722 0.714s-0.714 1.076-0.714 1.722v11.003l-0.63-0.63-0.689 0.689 1.319 1.319v1.26h-1.462v0.974h1.462v1.26l-1.319 1.319 0.689 0.689 0.63-0.63v7.106c0.001 0.646 0.258 1.265 0.714 1.722s1.076 0.714 1.722 0.714h13.641c0.646-0.001 1.265-0.258 1.722-0.714s0.714-1.076 0.714-1.722v-7.106l0.63 0.63 0.689-0.689zM23.872 19.736h-3.131c0.091-0.318 0.152-0.645 0.183-0.974h2.948v0.974zM20.924 17.787c-0.030-0.33-0.092-0.656-0.183-0.974h3.131v0.974h-2.948zM12.18 2.684h6.82v0.974h-6.82v-0.974zM8.769 2.684h2.436v0.974c0 0.258 0.103 0.506 0.285 0.689s0.431 0.285 0.689 0.285h6.82c0.258 0 0.506-0.103 0.689-0.285s0.285-0.431 0.285-0.689v-0.974h2.436c0.388 0 0.759 0.154 1.033 0.428s0.428 0.646 0.428 1.033v11.692h-3.515c-0.412-0.805-1.020-1.492-1.768-1.999s-1.613-0.816-2.512-0.899v-1.486h1.45c0.129 0 0.253-0.051 0.344-0.143l1.956-1.952-0.689-0.689-1.814 1.809h-1.249v-0.974h-0.974v0.974h-1.249l-1.811-1.812-0.689 0.691 1.954 1.955c0.091 0.091 0.215 0.143 0.344 0.143h1.45v1.486c-0.9 0.083-1.764 0.392-2.512 0.898s-1.357 1.193-1.768 1.998h-3.515v-11.692c0-0.388 0.154-0.759 0.428-1.033s0.646-0.428 1.033-0.428zM15.59 13.89c0.867 0 1.715 0.257 2.436 0.739s1.283 1.167 1.615 1.968c0.332 0.801 0.419 1.683 0.25 2.533s-0.587 1.632-1.2 2.245c-0.613 0.613-1.394 1.031-2.245 1.2s-1.732 0.082-2.533-0.25c-0.801-0.332-1.486-0.894-1.968-1.615s-0.739-1.569-0.739-2.436c0.001-1.162 0.464-2.277 1.286-3.099s1.937-1.284 3.099-1.286zM7.308 16.813h3.131c-0.091 0.318-0.152 0.645-0.183 0.974h-2.948v-0.974zM10.256 18.761c0.030 0.33 0.092 0.656 0.183 0.974h-3.131v-0.974h2.948zM22.41 29.967h-13.641c-0.388 0-0.759-0.154-1.033-0.428s-0.428-0.646-0.428-1.033v-7.795h3.515c0.448 0.88 1.13 1.618 1.971 2.134s1.809 0.789 2.796 0.789c0.987 0 1.955-0.273 2.796-0.789s1.524-1.255 1.971-2.134h3.515v7.795c0 0.388-0.154 0.759-0.428 1.033s-0.646 0.428-1.033 0.428z">
            </path>
            <path fill="currentColor" style="fill: var(--color1, currentColor)"
                d="M27.282 14.864c0.289 0 0.572-0.086 0.812-0.246s0.428-0.389 0.538-0.656c0.111-0.267 0.14-0.561 0.083-0.844s-0.196-0.544-0.4-0.748-0.465-0.344-0.748-0.4c-0.284-0.056-0.577-0.027-0.844 0.083s-0.495 0.298-0.656 0.538c-0.161 0.24-0.246 0.523-0.246 0.812 0 0.388 0.154 0.759 0.428 1.034s0.646 0.428 1.033 0.428zM27.282 12.915c0.096 0 0.191 0.029 0.271 0.082s0.143 0.13 0.179 0.219c0.037 0.089 0.047 0.187 0.028 0.282s-0.065 0.181-0.133 0.249c-0.068 0.068-0.155 0.115-0.249 0.133s-0.192 0.009-0.281-0.028c-0.089-0.037-0.165-0.099-0.219-0.179s-0.082-0.174-0.082-0.271c0-0.129 0.051-0.253 0.143-0.344s0.215-0.143 0.344-0.143zM28.744 16.813c-0.289 0-0.572 0.086-0.812 0.246s-0.428 0.389-0.538 0.656-0.14 0.561-0.083 0.844c0.056 0.284 0.196 0.544 0.4 0.748s0.465 0.344 0.748 0.4c0.284 0.056 0.577 0.027 0.844-0.083s0.495-0.298 0.656-0.538c0.161-0.24 0.246-0.523 0.246-0.812 0-0.388-0.154-0.759-0.428-1.033s-0.646-0.428-1.034-0.428zM28.744 18.761c-0.096 0-0.191-0.029-0.271-0.082s-0.143-0.13-0.179-0.219c-0.037-0.089-0.047-0.187-0.028-0.281s0.065-0.181 0.133-0.249c0.068-0.068 0.155-0.115 0.249-0.133s0.192-0.009 0.282 0.028c0.089 0.037 0.165 0.099 0.219 0.179s0.082 0.174 0.082 0.271c0 0.129-0.051 0.253-0.143 0.345s-0.215 0.143-0.345 0.143zM27.282 21.684c-0.289 0-0.572 0.086-0.812 0.246s-0.428 0.389-0.538 0.656c-0.111 0.267-0.14 0.561-0.083 0.844s0.196 0.544 0.4 0.748 0.465 0.344 0.748 0.4c0.284 0.056 0.577 0.027 0.844-0.083s0.495-0.298 0.656-0.538c0.161-0.24 0.246-0.523 0.246-0.812 0-0.388-0.154-0.759-0.428-1.033s-0.646-0.428-1.033-0.428zM27.282 23.633c-0.096 0-0.191-0.029-0.271-0.082s-0.143-0.13-0.179-0.219c-0.037-0.089-0.047-0.187-0.028-0.281s0.065-0.181 0.133-0.249c0.068-0.068 0.155-0.115 0.249-0.133s0.192-0.009 0.281 0.028c0.089 0.037 0.165 0.099 0.219 0.179s0.082 0.174 0.082 0.271c0 0.129-0.051 0.253-0.143 0.345s-0.215 0.143-0.344 0.143zM3.897 14.864c0.289 0 0.572-0.086 0.812-0.246s0.428-0.389 0.538-0.656c0.111-0.267 0.14-0.561 0.083-0.844s-0.196-0.544-0.4-0.748-0.465-0.344-0.748-0.4c-0.284-0.056-0.577-0.027-0.844 0.083s-0.495 0.298-0.656 0.538c-0.161 0.24-0.246 0.523-0.246 0.812 0 0.388 0.154 0.759 0.428 1.034s0.646 0.428 1.033 0.428zM3.897 12.915c0.096 0 0.191 0.029 0.271 0.082s0.143 0.13 0.179 0.219 0.047 0.187 0.028 0.282c-0.019 0.094-0.065 0.181-0.133 0.249s-0.155 0.115-0.249 0.133-0.192 0.009-0.281-0.028c-0.089-0.037-0.165-0.099-0.219-0.179s-0.082-0.174-0.082-0.271c0-0.129 0.051-0.253 0.143-0.344s0.215-0.143 0.344-0.143zM3.897 18.274c0-0.289-0.086-0.572-0.246-0.812s-0.389-0.428-0.656-0.538c-0.267-0.111-0.561-0.14-0.844-0.083s-0.544 0.196-0.748 0.4c-0.204 0.204-0.344 0.465-0.4 0.748s-0.027 0.577 0.083 0.844 0.298 0.495 0.538 0.656c0.24 0.161 0.523 0.246 0.812 0.246 0.388 0 0.759-0.154 1.033-0.428s0.428-0.646 0.428-1.034zM1.949 18.274c0-0.096 0.029-0.191 0.082-0.271s0.13-0.143 0.219-0.179c0.089-0.037 0.187-0.047 0.281-0.028s0.181 0.065 0.249 0.133c0.068 0.068 0.115 0.155 0.133 0.249s0.009 0.192-0.028 0.281c-0.037 0.089-0.099 0.165-0.179 0.219s-0.174 0.082-0.271 0.082c-0.129 0-0.253-0.051-0.344-0.143s-0.143-0.215-0.143-0.345zM3.897 21.684c-0.289 0-0.572 0.086-0.812 0.246s-0.428 0.389-0.538 0.656-0.14 0.561-0.083 0.844c0.056 0.284 0.196 0.544 0.4 0.748s0.465 0.344 0.748 0.4c0.284 0.056 0.577 0.027 0.844-0.083s0.495-0.298 0.656-0.538c0.161-0.24 0.246-0.523 0.246-0.812 0-0.388-0.154-0.759-0.428-1.033s-0.646-0.428-1.033-0.428zM3.897 23.633c-0.096 0-0.191-0.029-0.271-0.082s-0.143-0.13-0.179-0.219c-0.037-0.089-0.047-0.187-0.028-0.281s0.065-0.181 0.133-0.249c0.068-0.068 0.155-0.115 0.249-0.133s0.192-0.009 0.281 0.028c0.089 0.037 0.165 0.099 0.219 0.179s0.082 0.174 0.082 0.271c0 0.129-0.051 0.253-0.143 0.345s-0.215 0.143-0.345 0.143zM15.59 8.531c0.289 0 0.572-0.086 0.812-0.246s0.428-0.389 0.538-0.656c0.111-0.267 0.14-0.561 0.083-0.844s-0.196-0.544-0.4-0.748-0.465-0.344-0.748-0.4c-0.284-0.056-0.577-0.027-0.844 0.083s-0.495 0.298-0.656 0.538c-0.161 0.24-0.246 0.523-0.246 0.812 0 0.388 0.154 0.759 0.428 1.033s0.646 0.428 1.033 0.428zM15.59 6.582c0.096 0 0.191 0.029 0.271 0.082s0.143 0.13 0.179 0.219c0.037 0.089 0.047 0.187 0.028 0.281s-0.065 0.181-0.133 0.249c-0.068 0.068-0.155 0.115-0.249 0.133s-0.192 0.009-0.281-0.028-0.165-0.099-0.219-0.179c-0.053-0.080-0.082-0.174-0.082-0.271 0-0.129 0.051-0.253 0.143-0.344s0.215-0.143 0.344-0.143zM21.436 8.531c0.289 0 0.572-0.086 0.812-0.246s0.428-0.389 0.538-0.656c0.111-0.267 0.14-0.561 0.083-0.844s-0.196-0.544-0.4-0.748-0.465-0.344-0.748-0.4c-0.284-0.056-0.577-0.027-0.844 0.083s-0.495 0.298-0.656 0.538c-0.161 0.24-0.246 0.523-0.246 0.812 0 0.388 0.154 0.759 0.428 1.033s0.646 0.428 1.033 0.428zM21.436 6.582c0.096 0 0.191 0.029 0.271 0.082s0.143 0.13 0.179 0.219c0.037 0.089 0.047 0.187 0.028 0.281s-0.065 0.181-0.133 0.249c-0.068 0.068-0.155 0.115-0.249 0.133s-0.192 0.009-0.281-0.028-0.165-0.099-0.219-0.179c-0.053-0.080-0.082-0.174-0.082-0.271 0-0.129 0.051-0.253 0.143-0.344s0.215-0.143 0.344-0.143zM9.744 8.531c0.289 0 0.572-0.086 0.812-0.246s0.428-0.389 0.538-0.656c0.111-0.267 0.14-0.561 0.083-0.844s-0.196-0.544-0.4-0.748-0.465-0.344-0.748-0.4c-0.284-0.056-0.577-0.027-0.844 0.083s-0.495 0.298-0.656 0.538c-0.161 0.24-0.246 0.523-0.246 0.812 0 0.388 0.154 0.759 0.428 1.033s0.646 0.428 1.033 0.428zM9.744 6.582c0.096 0 0.191 0.029 0.271 0.082s0.143 0.13 0.179 0.219c0.037 0.089 0.047 0.187 0.028 0.281s-0.065 0.181-0.133 0.249c-0.068 0.068-0.155 0.115-0.249 0.133s-0.192 0.009-0.281-0.028-0.165-0.099-0.219-0.179c-0.053-0.080-0.082-0.174-0.082-0.271 0-0.129 0.051-0.253 0.143-0.344s0.215-0.143 0.344-0.143z">
            </path>
            <path fill="currentColor" style="fill: var(--color1, currentColor)"
                d="M17.051 25.582h-0.974v0.974h0.974v-0.974z"></path>
            <path fill="currentColor" style="fill: var(--color1, currentColor)"
                d="M19 25.582h-0.974v0.974h0.974v-0.974z"></path>
            <path fill="currentColor" style="fill: var(--color1, currentColor)"
                d="M13.154 25.582h-0.974v0.974h0.974v-0.974z"></path>
            <path fill="currentColor" style="fill: var(--color1, currentColor)"
                d="M15.103 25.582h-0.974v0.974h0.974v-0.974z"></path>
        </symbol>
        <symbol id="06" viewBox="0 0 33 32">
            <path fill="currentColor" style="fill: var(--color1, currentColor)"
                d="M14.207 7.428c0-1.293-0.932-1.44-1.68-1.559-0.816-0.129-1.277-0.241-1.277-1.039 0-0.67 0.618-0.908 1.147-0.908 0.264-0.010 0.526 0.052 0.764 0.18s0.447 0.319 0.608 0.556l0.384-0.352c-0.172-0.252-0.387-0.463-0.631-0.62s-0.514-0.259-0.793-0.297v-0.867h-0.493v0.847c-0.891 0.062-1.479 0.633-1.479 1.463 0 1.325 0.944 1.475 1.702 1.594 0.802 0.127 1.255 0.236 1.255 1.004 0 0.849-0.772 0.976-1.232 0.976-0.845 0-1.202-0.27-1.534-0.736l-0.384 0.352c0.195 0.293 0.448 0.53 0.738 0.692s0.609 0.246 0.932 0.243v0.85h0.493v-0.853c0.918-0.085 1.479-0.652 1.479-1.524z">
            </path>
            <path fill="none" stroke="currentColor" style="stroke: var(--color1, currentColor)" stroke-linejoin="miter"
                stroke-linecap="butt" stroke-miterlimit="4" stroke-width="0.7805"
                d="M17.459 6.163c0 2.802-2.271 5.073-5.073 5.073s-5.073-2.271-5.073-5.073c0-2.802 2.271-5.073 5.073-5.073s5.073 2.271 5.073 5.073z">
            </path>
            <path fill="none" stroke="currentColor" style="stroke: var(--color1, currentColor)" stroke-linejoin="miter"
                stroke-linecap="butt" stroke-miterlimit="4" stroke-width="0.7805"
                d="M3.851 22.033h2.559v-7.285h-2.815M3.851 22.033v3.642M3.851 22.033h-3.071v-7.285h2.815M3.595 14.749v-3.642">
            </path>
            <path fill="none" stroke="currentColor" style="stroke: var(--color1, currentColor)" stroke-linejoin="miter"
                stroke-linecap="butt" stroke-miterlimit="4" stroke-width="0.7805"
                d="M12.040 28.277h2.559v-7.285h-2.815M12.040 28.277v3.642M12.040 28.277h-3.071v-7.285h2.815M11.784 20.993v-3.642">
            </path>
            <path fill="none" stroke="currentColor" style="stroke: var(--color1, currentColor)" stroke-linejoin="miter"
                stroke-linecap="butt" stroke-miterlimit="4" stroke-width="0.7805"
                d="M21.252 22.033h2.559v-7.285h-2.815M21.252 22.033v3.642M21.252 22.033h-3.071v-7.285h2.815M20.996 14.749v-3.642">
            </path>
            <path fill="none" stroke="currentColor" style="stroke: var(--color1, currentColor)" stroke-linejoin="miter"
                stroke-linecap="butt" stroke-miterlimit="4" stroke-width="0.7805"
                d="M29.441 28.277h2.559v-7.285h-2.815M29.441 28.277v3.642M29.441 28.277h-3.071v-7.285h2.815M29.185 20.993v-3.642">
            </path>
        </symbol>
    </defs>
</svg>