<svg width="150" height="213" viewBox="0 0 150 213" fill="none" xmlns="http://www.w3.org/2000/svg">
<g filter="url(#filter0_f_960_23)">
<ellipse cx="52.8542" cy="116.104" rx="13.1965" ry="13.1965" transform="rotate(-155.616 52.8542 116.104)" fill="#DA7EFF" fill-opacity="0.4"/>
</g>
<g filter="url(#filter1_ii_960_23)">
<circle cx="52.9652" cy="116.399" r="15.8389" transform="rotate(-155.616 52.9652 116.399)" fill="#53199C"/>
</g>
<g filter="url(#filter2_f_960_23)">
<ellipse rx="4.61967" ry="4.61968" transform="matrix(-0.910797 -0.412855 0.412856 -0.910796 45.6482 118.155)" fill="#8744DD"/>
</g>
<circle cx="92.7076" cy="97.1633" r="5.44462" transform="rotate(-155.616 92.7076 97.1633)" fill="#191931"/>
<circle r="5.44462" transform="matrix(-0.910796 -0.412857 0.412854 -0.910797 133.852 124.166)" fill="#191931"/>
<circle r="5.44462" transform="matrix(-0.910796 -0.412857 0.412854 -0.910797 123.883 146.158)" fill="#191931"/>
<line x1="119.535" y1="141.935" x2="111.284" y2="131.295" stroke="#434363"/>
<line y1="-0.5" x2="10.8144" y2="-0.5" transform="matrix(-0.999861 -0.0166747 0.0166824 -0.999861 128.123 123.552)" stroke="#434363"/>
<line x1="95.0304" y1="101.935" x2="102.49" y2="115.121" stroke="#434363"/>
<circle cx="107.385" cy="122.894" r="9.89931" transform="rotate(-155.616 107.385 122.894)" fill="#F2BB9E"/>
<ellipse rx="6.92951" ry="6.92951" transform="matrix(-0.910796 -0.412856 0.412855 -0.910797 107.389 122.531)" fill="#191931"/>
<line y1="-0.5" x2="30.0028" y2="-0.5" transform="matrix(-0.983734 -0.179629 0.179627 -0.983735 98.4478 121.722)" stroke="url(#paint0_linear_960_23)"/>
<ellipse rx="5.44462" ry="5.44462" transform="matrix(0.115704 0.993284 -0.993284 0.115705 15.0381 59.038)" fill="#191931"/>
<ellipse cx="15.0381" cy="9.03802" rx="5.44462" ry="5.44462" transform="rotate(83.3557 15.0381 9.03802)" fill="#191931"/>
<ellipse cx="35.7768" cy="6.03802" rx="5.44462" ry="5.44462" transform="rotate(83.3557 35.7768 6.03802)" fill="#191931"/>
<line y1="-0.5" x2="13.4641" y2="-0.5" transform="matrix(-0.361297 0.932451 -0.932451 -0.361296 33.9329 11.7605)" stroke="#434363"/>
<line x1="17.4817" y1="13.865" x2="20.1212" y2="23.2804" stroke="#434363"/>
<line x1="16.5178" y1="53.8687" x2="20.1618" y2="40.4831" stroke="#434363"/>
<circle cx="24.3458" cy="32.1672" r="9.89931" transform="rotate(83.3557 24.3458 32.1672)" fill="#F2BB9E"/>
<circle cx="24.1727" cy="31.8456" r="6.92951" transform="rotate(83.3557 24.1727 31.8456)" fill="#191931"/>
<line x1="28.4234" y1="40.273" x2="48.3121" y2="100.646" stroke="url(#paint1_linear_960_23)"/>
<path d="M63.5 92.5L87.5 33.9999" stroke="url(#paint2_linear_960_23)"/>
<defs>
<filter id="filter0_f_960_23" x="-43.3455" y="19.9045" width="192.399" height="192.399" filterUnits="userSpaceOnUse" color-interpolation-filters="sRGB">
<feFlood flood-opacity="0" result="BackgroundImageFix"/>
<feBlend mode="normal" in="SourceGraphic" in2="BackgroundImageFix" result="shape"/>
<feGaussianBlur stdDeviation="41.5" result="effect1_foregroundBlur_960_23"/>
</filter>
<filter id="filter1_ii_960_23" x="37.1226" y="100.557" width="33.6855" height="33.6855" filterUnits="userSpaceOnUse" color-interpolation-filters="sRGB">
<feFlood flood-opacity="0" result="BackgroundImageFix"/>
<feBlend mode="normal" in="SourceGraphic" in2="BackgroundImageFix" result="shape"/>
<feColorMatrix in="SourceAlpha" type="matrix" values="0 0 0 0 0 0 0 0 0 0 0 0 0 0 0 0 0 0 127 0" result="hardAlpha"/>
<feOffset dx="2" dy="2"/>
<feGaussianBlur stdDeviation="4"/>
<feComposite in2="hardAlpha" operator="arithmetic" k2="-1" k3="1"/>
<feColorMatrix type="matrix" values="0 0 0 0 0.831373 0 0 0 0 0.419608 0 0 0 0 0.996078 0 0 0 0.66 0"/>
<feBlend mode="normal" in2="shape" result="effect1_innerShadow_960_23"/>
<feColorMatrix in="SourceAlpha" type="matrix" values="0 0 0 0 0 0 0 0 0 0 0 0 0 0 0 0 0 0 127 0" result="hardAlpha"/>
<feOffset dx="1" dy="1"/>
<feGaussianBlur stdDeviation="2"/>
<feComposite in2="hardAlpha" operator="arithmetic" k2="-1" k3="1"/>
<feColorMatrix type="matrix" values="0 0 0 0 0.831373 0 0 0 0 0.419608 0 0 0 0 0.996078 0 0 0 0.36 0"/>
<feBlend mode="normal" in2="effect1_innerShadow_960_23" result="effect2_innerShadow_960_23"/>
</filter>
<filter id="filter2_f_960_23" x="13.0273" y="85.5339" width="65.2417" height="65.2415" filterUnits="userSpaceOnUse" color-interpolation-filters="sRGB">
<feFlood flood-opacity="0" result="BackgroundImageFix"/>
<feBlend mode="normal" in="SourceGraphic" in2="BackgroundImageFix" result="shape"/>
<feGaussianBlur stdDeviation="14" result="effect1_foregroundBlur_960_23"/>
</filter>
<linearGradient id="paint0_linear_960_23" x1="30.0028" y1="0.000151784" x2="-1.81273" y2="0.167264" gradientUnits="userSpaceOnUse">
<stop stop-color="#53199C"/>
<stop offset="1" stop-color="#F2BB9E"/>
</linearGradient>
<linearGradient id="paint1_linear_960_23" x1="47.8371" y1="100.803" x2="26.0364" y2="37.0227" gradientUnits="userSpaceOnUse">
<stop stop-color="#53199C"/>
<stop offset="1" stop-color="#F2BB9E"/>
</linearGradient>
<linearGradient id="paint2_linear_960_23" x1="-1.1651" y1="117.11" x2="125.042" y2="72.5351" gradientUnits="userSpaceOnUse">
<stop stop-color="#D46BFE"/>
<stop offset="1" stop-color="#3D3DD5"/>
</linearGradient>
</defs>
</svg>
