<svg width="140" height="50" viewBox="0 0 140 50" fill="none" xmlns="http://www.w3.org/2000/svg">
<path d="M40.709 9.983C40.709 10.5183 40.5403 10.9437 40.203 11.259C39.8657 11.567 39.4147 11.765 38.85 11.853V11.897C39.51 11.985 40.0123 12.1903 40.357 12.513C40.7017 12.8357 40.874 13.2573 40.874 13.778C40.874 14.24 40.7567 14.647 40.522 14.999C40.2873 15.3437 39.9353 15.615 39.466 15.813C38.9967 16.011 38.41 16.11 37.706 16.11C37.2807 16.11 36.8737 16.077 36.485 16.011C36.1037 15.9523 35.748 15.8423 35.418 15.681V14.779C35.6453 14.889 35.8873 14.9843 36.144 15.065C36.408 15.1383 36.672 15.197 36.936 15.241C37.2 15.2777 37.453 15.296 37.695 15.296C38.399 15.296 38.9307 15.164 39.29 14.9C39.6567 14.636 39.84 14.262 39.84 13.778C39.84 13.2793 39.6273 12.9163 39.202 12.689C38.7767 12.4617 38.1827 12.348 37.42 12.348H36.298V11.523H37.365C37.8857 11.523 38.3147 11.4643 38.652 11.347C38.9967 11.2297 39.2533 11.0647 39.422 10.852C39.598 10.632 39.686 10.3753 39.686 10.082C39.686 9.686 39.5393 9.38167 39.246 9.169C38.9527 8.95633 38.5713 8.85 38.102 8.85C37.6107 8.85 37.2 8.91233 36.87 9.037C36.5473 9.16167 36.232 9.323 35.924 9.521L35.451 8.85C35.6563 8.696 35.891 8.56033 36.155 8.443C36.4263 8.31833 36.727 8.21933 37.057 8.146C37.387 8.07267 37.739 8.036 38.113 8.036C38.6777 8.036 39.1507 8.12033 39.532 8.289C39.9207 8.45767 40.214 8.68867 40.412 8.982C40.61 9.268 40.709 9.60167 40.709 9.983ZM44.6348 10.005C45.3535 10.005 45.8851 10.1627 46.2298 10.478C46.5745 10.7933 46.7468 11.2957 46.7468 11.985V16H46.0428L45.8558 15.164H45.8118C45.6431 15.3767 45.4671 15.5563 45.2838 15.703C45.1078 15.8423 44.9025 15.945 44.6678 16.011C44.4405 16.077 44.1618 16.11 43.8318 16.11C43.4798 16.11 43.1608 16.0477 42.8748 15.923C42.5961 15.7983 42.3761 15.6077 42.2148 15.351C42.0535 15.087 41.9728 14.757 41.9728 14.361C41.9728 13.7743 42.2038 13.3233 42.6658 13.008C43.1278 12.6853 43.8391 12.5093 44.7998 12.48L45.8008 12.447V12.095C45.8008 11.6037 45.6945 11.2627 45.4818 11.072C45.2691 10.8813 44.9685 10.786 44.5798 10.786C44.2718 10.786 43.9785 10.8337 43.6998 10.929C43.4211 11.017 43.1608 11.1197 42.9188 11.237L42.6218 10.511C42.8785 10.3717 43.1828 10.2543 43.5348 10.159C43.8868 10.0563 44.2535 10.005 44.6348 10.005ZM44.9208 13.151C44.1875 13.1803 43.6778 13.2977 43.3918 13.503C43.1131 13.7083 42.9738 13.998 42.9738 14.372C42.9738 14.702 43.0728 14.944 43.2708 15.098C43.4761 15.252 43.7365 15.329 44.0518 15.329C44.5505 15.329 44.9648 15.1933 45.2948 14.922C45.6248 14.6433 45.7898 14.218 45.7898 13.646V13.118L44.9208 13.151ZM52.1648 10.104V10.918H49.5358V16H48.5678V10.104H52.1648ZM56.1316 9.994C56.8576 9.994 57.4406 10.247 57.8806 10.753C58.3279 11.259 58.5516 12.0217 58.5516 13.041C58.5516 13.7083 58.4489 14.273 58.2436 14.735C58.0456 15.1897 57.7633 15.5343 57.3966 15.769C57.0373 15.9963 56.6119 16.11 56.1206 16.11C55.8199 16.11 55.5523 16.0697 55.3176 15.989C55.0829 15.9083 54.8813 15.8057 54.7126 15.681C54.5513 15.549 54.4119 15.406 54.2946 15.252H54.2286C54.2433 15.3767 54.2579 15.5343 54.2726 15.725C54.2873 15.9157 54.2946 16.0807 54.2946 16.22V18.64H53.3266V10.104H54.1186L54.2506 10.907H54.2946C54.4119 10.7383 54.5513 10.5843 54.7126 10.445C54.8813 10.3057 55.0793 10.1957 55.3066 10.115C55.5413 10.0343 55.8163 9.994 56.1316 9.994ZM55.9556 10.808C55.5596 10.808 55.2406 10.885 54.9986 11.039C54.7566 11.1857 54.5806 11.4093 54.4706 11.71C54.3606 12.0107 54.3019 12.392 54.2946 12.854V13.041C54.2946 13.525 54.3459 13.9357 54.4486 14.273C54.5513 14.6103 54.7236 14.867 54.9656 15.043C55.2149 15.219 55.5523 15.307 55.9776 15.307C56.3369 15.307 56.6303 15.208 56.8576 15.01C57.0923 14.812 57.2646 14.5443 57.3746 14.207C57.4919 13.8623 57.5506 13.47 57.5506 13.03C57.5506 12.3553 57.4186 11.8163 57.1546 11.413C56.8979 11.0097 56.4983 10.808 55.9556 10.808ZM59.0628 10.104H60.0968L61.3728 13.459C61.4461 13.657 61.5121 13.8477 61.5708 14.031C61.6368 14.2143 61.6954 14.394 61.7468 14.57C61.7981 14.7387 61.8384 14.9037 61.8678 15.065H61.9118C61.9558 14.8817 62.0254 14.6433 62.1208 14.35C62.2161 14.0493 62.3151 13.7487 62.4178 13.448L63.6168 10.104H64.6618L62.1208 16.814C61.9814 17.1807 61.8164 17.4997 61.6258 17.771C61.4424 18.0497 61.2151 18.2623 60.9438 18.409C60.6798 18.563 60.3571 18.64 59.9758 18.64C59.7998 18.64 59.6458 18.629 59.5138 18.607C59.3818 18.5923 59.2681 18.574 59.1728 18.552V17.782C59.2534 17.7967 59.3488 17.8113 59.4588 17.826C59.5761 17.8407 59.6971 17.848 59.8218 17.848C60.0491 17.848 60.2434 17.804 60.4048 17.716C60.5734 17.6353 60.7164 17.5143 60.8338 17.353C60.9511 17.199 61.0501 17.0157 61.1308 16.803L61.4388 16.022L59.0628 10.104ZM67.1452 9.994C67.5925 9.994 67.9812 10.0563 68.3112 10.181C68.6412 10.2983 68.8978 10.4743 69.0812 10.709C69.2645 10.9363 69.3562 11.215 69.3562 11.545C69.3562 11.9043 69.2572 12.1903 69.0592 12.403C68.8612 12.6083 68.5898 12.7587 68.2452 12.854V12.898C68.4798 12.964 68.6962 13.0557 68.8942 13.173C69.0922 13.2903 69.2498 13.4443 69.3672 13.635C69.4918 13.8257 69.5542 14.0713 69.5542 14.372C69.5542 14.6947 69.4625 14.988 69.2792 15.252C69.1032 15.516 68.8282 15.725 68.4542 15.879C68.0875 16.033 67.6145 16.11 67.0352 16.11C66.7565 16.11 66.4888 16.0953 66.2322 16.066C65.9828 16.0367 65.7555 15.9927 65.5502 15.934C65.3522 15.8753 65.1762 15.8057 65.0222 15.725V14.856C65.2715 14.9733 65.5648 15.0797 65.9022 15.175C66.2468 15.2703 66.6208 15.318 67.0242 15.318C67.3175 15.318 67.5815 15.285 67.8162 15.219C68.0582 15.153 68.2488 15.0503 68.3882 14.911C68.5275 14.7643 68.5972 14.5663 68.5972 14.317C68.5972 14.0897 68.5348 13.9063 68.4102 13.767C68.2855 13.6203 68.0985 13.5103 67.8492 13.437C67.6072 13.3637 67.2955 13.327 66.9142 13.327H66.1222V12.535H66.7602C67.2662 12.535 67.6695 12.469 67.9702 12.337C68.2782 12.1977 68.4322 11.963 68.4322 11.633C68.4322 11.3543 68.3148 11.1453 68.0802 11.006C67.8528 10.8667 67.5228 10.797 67.0902 10.797C66.7675 10.797 66.4815 10.83 66.2322 10.896C65.9902 10.9547 65.7225 11.0463 65.4292 11.171L65.0882 10.401C65.4035 10.2617 65.7335 10.159 66.0782 10.093C66.4228 10.027 66.7785 9.994 67.1452 9.994ZM71.8998 13.701C71.8998 13.767 71.8961 13.8623 71.8888 13.987C71.8888 14.1043 71.8851 14.2327 71.8778 14.372C71.8704 14.504 71.8631 14.6323 71.8558 14.757C71.8484 14.8743 71.8411 14.9697 71.8338 15.043L74.9908 10.104H76.1788V16H75.2768V12.524C75.2768 12.4067 75.2768 12.2527 75.2768 12.062C75.2841 11.8713 75.2914 11.6843 75.2988 11.501C75.3061 11.3103 75.3134 11.1673 75.3208 11.072L72.1858 16H70.9868V10.104H71.8998V13.701ZM82.1251 10.918H80.2001V16H79.2431V10.918H77.3401V10.104H82.1251V10.918ZM85.4561 9.994C85.9621 9.994 86.3948 10.104 86.7541 10.324C87.1208 10.544 87.3995 10.8557 87.5901 11.259C87.7881 11.655 87.8871 12.1207 87.8871 12.656V13.239H83.8501C83.8648 13.9063 84.0335 14.416 84.3561 14.768C84.6861 15.1127 85.1445 15.285 85.7311 15.285C86.1051 15.285 86.4351 15.252 86.7211 15.186C87.0145 15.1127 87.3151 15.01 87.6231 14.878V15.725C87.3225 15.857 87.0255 15.9523 86.7321 16.011C86.4388 16.077 86.0905 16.11 85.6871 16.11C85.1298 16.11 84.6348 15.9963 84.2021 15.769C83.7768 15.5417 83.4431 15.2043 83.2011 14.757C82.9665 14.3023 82.8491 13.7487 82.8491 13.096C82.8491 12.4507 82.9555 11.897 83.1681 11.435C83.3881 10.973 83.6925 10.6173 84.0811 10.368C84.4771 10.1187 84.9355 9.994 85.4561 9.994ZM85.4451 10.786C84.9831 10.786 84.6165 10.9363 84.3451 11.237C84.0811 11.5303 83.9235 11.941 83.8721 12.469H86.8751C86.8751 12.1317 86.8238 11.8383 86.7211 11.589C86.6185 11.3397 86.4608 11.1453 86.2481 11.006C86.0428 10.8593 85.7751 10.786 85.4451 10.786ZM96.5461 11.589C96.5461 11.9557 96.4361 12.2417 96.2161 12.447C95.9961 12.6523 95.7138 12.7917 95.3691 12.865V12.909C95.7358 12.9603 96.0548 13.0923 96.3261 13.305C96.5975 13.5103 96.7331 13.833 96.7331 14.273C96.7331 14.5223 96.6855 14.7533 96.5901 14.966C96.5021 15.1787 96.3628 15.362 96.1721 15.516C95.9815 15.67 95.7358 15.791 95.4351 15.879C95.1345 15.9597 94.7715 16 94.3461 16H91.8051V10.104H94.3351C94.7531 10.104 95.1271 10.1517 95.4571 10.247C95.7945 10.335 96.0585 10.489 96.2491 10.709C96.4471 10.9217 96.5461 11.215 96.5461 11.589ZM95.7321 14.273C95.7321 13.9357 95.6038 13.6937 95.3471 13.547C95.0905 13.4003 94.7128 13.327 94.2141 13.327H92.7731V15.219H94.2361C94.7201 15.219 95.0905 15.1493 95.3471 15.01C95.6038 14.8633 95.7321 14.6177 95.7321 14.273ZM95.5671 11.71C95.5671 11.4313 95.4645 11.2297 95.2591 11.105C95.0611 10.973 94.7348 10.907 94.2801 10.907H92.7731V12.524H94.1041C94.5808 12.524 94.9438 12.458 95.1931 12.326C95.4425 12.194 95.5671 11.9887 95.5671 11.71Z" fill="white"/>
<path d="M42.16 32.76V30.8H46.06V37.76C45.7 37.8533 44.9667 37.9533 43.86 38.06C42.7667 38.1667 41.9733 38.22 41.48 38.22C39.4 38.22 37.9667 37.6467 37.18 36.5C36.3933 35.3533 36 33.56 36 31.12C36 28.6667 36.4 26.88 37.2 25.76C38.0133 24.64 39.4133 24.08 41.4 24.08C42.5733 24.08 43.8933 24.2133 45.36 24.48L46.06 24.62L45.98 26.38C44.3667 26.1667 42.92 26.06 41.64 26.06C40.36 26.06 39.48 26.42 39 27.14C38.5333 27.86 38.3 29.1933 38.3 31.14C38.3 33.0867 38.52 34.4333 38.96 35.18C39.4133 35.9133 40.32 36.28 41.68 36.28C42.6533 36.28 43.38 36.22 43.86 36.1V32.76H42.16ZM49.1256 29.08C49.819 28.2133 50.9656 27.78 52.5656 27.78C54.1656 27.78 55.3056 28.2133 55.9856 29.08C56.679 29.9467 57.0256 31.2467 57.0256 32.98C57.0256 34.7133 56.6923 36.02 56.0256 36.9C55.359 37.78 54.2056 38.22 52.5656 38.22C50.9256 38.22 49.7723 37.78 49.1056 36.9C48.439 36.02 48.1056 34.7133 48.1056 32.98C48.1056 31.2467 48.4456 29.9467 49.1256 29.08ZM50.7656 35.58C51.0723 36.1133 51.6723 36.38 52.5656 36.38C53.459 36.38 54.059 36.1133 54.3656 35.58C54.6723 35.0467 54.8256 34.1733 54.8256 32.96C54.8256 31.7467 54.659 30.8867 54.3256 30.38C54.0056 29.8733 53.419 29.62 52.5656 29.62C51.7123 29.62 51.119 29.8733 50.7856 30.38C50.4656 30.8867 50.3056 31.7467 50.3056 32.96C50.3056 34.1733 50.459 35.0467 50.7656 35.58ZM59.7311 29.08C60.4244 28.2133 61.5711 27.78 63.1711 27.78C64.7711 27.78 65.9111 28.2133 66.5911 29.08C67.2844 29.9467 67.6311 31.2467 67.6311 32.98C67.6311 34.7133 67.2978 36.02 66.6311 36.9C65.9644 37.78 64.8111 38.22 63.1711 38.22C61.5311 38.22 60.3778 37.78 59.7111 36.9C59.0444 36.02 58.7111 34.7133 58.7111 32.98C58.7111 31.2467 59.0511 29.9467 59.7311 29.08ZM61.3711 35.58C61.6778 36.1133 62.2778 36.38 63.1711 36.38C64.0644 36.38 64.6644 36.1133 64.9711 35.58C65.2778 35.0467 65.4311 34.1733 65.4311 32.96C65.4311 31.7467 65.2644 30.8867 64.9311 30.38C64.6111 29.8733 64.0244 29.62 63.1711 29.62C62.3178 29.62 61.7244 29.8733 61.3911 30.38C61.0711 30.8867 60.9111 31.7467 60.9111 32.96C60.9111 34.1733 61.0644 35.0467 61.3711 35.58ZM78.5366 39.36C78.5366 41.5467 76.9566 42.64 73.7966 42.64C72.2766 42.64 71.1499 42.4333 70.4166 42.02C69.6832 41.6067 69.3166 40.8533 69.3166 39.76C69.3166 39.2667 69.4366 38.84 69.6766 38.48C69.9166 38.1333 70.3032 37.7533 70.8366 37.34C70.3966 37.0467 70.1766 36.56 70.1766 35.88C70.1766 35.6133 70.3566 35.18 70.7166 34.58L70.8966 34.28C69.9366 33.7067 69.4566 32.7067 69.4566 31.28C69.4566 30.08 69.8166 29.2 70.5366 28.64C71.2566 28.08 72.2299 27.8 73.4566 27.8C74.0432 27.8 74.6232 27.8667 75.1966 28L75.4966 28.06L78.5966 27.98V29.74L76.9366 29.64C77.2966 30.1067 77.4766 30.6533 77.4766 31.28C77.4766 32.5867 77.1432 33.4933 76.4766 34C75.8232 34.4933 74.7966 34.74 73.3966 34.74C73.0499 34.74 72.7566 34.7133 72.5166 34.66C72.3299 35.1133 72.2366 35.4667 72.2366 35.72C72.2366 35.96 72.3566 36.1267 72.5966 36.22C72.8499 36.3133 73.4499 36.3667 74.3966 36.38C75.9832 36.3933 77.0699 36.6067 77.6566 37.02C78.2432 37.4333 78.5366 38.2133 78.5366 39.36ZM71.4566 39.56C71.4566 40.0267 71.6432 40.36 72.0166 40.56C72.3899 40.76 73.0299 40.86 73.9366 40.86C75.5499 40.86 76.3566 40.4 76.3566 39.48C76.3566 38.96 76.2099 38.6267 75.9166 38.48C75.6366 38.3467 75.0699 38.2733 74.2166 38.26L72.2566 38.14C71.9632 38.38 71.7566 38.6 71.6366 38.8C71.5166 39.0133 71.4566 39.2667 71.4566 39.56ZM71.6166 31.28C71.6166 31.8933 71.7632 32.3467 72.0566 32.64C72.3499 32.92 72.8232 33.06 73.4766 33.06C74.1299 33.06 74.5966 32.92 74.8766 32.64C75.1699 32.3467 75.3166 31.8933 75.3166 31.28C75.3166 30.6667 75.1699 30.22 74.8766 29.94C74.5832 29.6467 74.1099 29.5 73.4566 29.5C72.2299 29.5 71.6166 30.0933 71.6166 31.28ZM80.4244 38V23.84H82.6044V38H80.4244ZM92.483 36.2L93.043 36.14L93.083 37.76C91.563 38.0667 90.2163 38.22 89.043 38.22C87.563 38.22 86.4963 37.8133 85.843 37C85.203 36.1867 84.883 34.8867 84.883 33.1C84.883 29.5533 86.3296 27.78 89.223 27.78C92.023 27.78 93.423 29.3067 93.423 32.36L93.283 33.92H87.083C87.0963 34.7467 87.2763 35.3533 87.623 35.74C87.9696 36.1267 88.6163 36.32 89.563 36.32C90.5096 36.32 91.483 36.28 92.483 36.2ZM91.283 32.24C91.283 31.2533 91.123 30.5667 90.803 30.18C90.4963 29.78 89.9696 29.58 89.223 29.58C88.4763 29.58 87.9296 29.7867 87.583 30.2C87.2496 30.6133 87.0763 31.2933 87.063 32.24H91.283ZM105.194 33.74H102.394V38H100.174V24.3H105.194C108.3 24.3 109.854 25.8333 109.854 28.9C109.854 30.4733 109.46 31.6733 108.674 32.5C107.9 33.3267 106.74 33.74 105.194 33.74ZM102.394 31.82H105.174C106.774 31.82 107.574 30.8467 107.574 28.9C107.574 27.9667 107.38 27.2867 106.994 26.86C106.607 26.4333 106 26.22 105.174 26.22H102.394V31.82ZM111.85 38V23.84H114.03V38H111.85ZM124.189 31.08V35.64C124.202 35.9333 124.275 36.1533 124.409 36.3C124.555 36.4333 124.775 36.52 125.069 36.56L125.009 38.22C123.862 38.22 122.975 37.9733 122.349 37.48C121.282 37.9733 120.209 38.22 119.129 38.22C117.142 38.22 116.149 37.16 116.149 35.04C116.149 34.0267 116.415 33.2933 116.949 32.84C117.495 32.3867 118.329 32.1133 119.449 32.02L122.029 31.8V31.08C122.029 30.5467 121.909 30.1733 121.669 29.96C121.442 29.7467 121.102 29.64 120.649 29.64C119.795 29.64 118.729 29.6933 117.449 29.8L116.809 29.84L116.729 28.3C118.182 27.9533 119.515 27.78 120.729 27.78C121.955 27.78 122.835 28.0467 123.369 28.58C123.915 29.1 124.189 29.9333 124.189 31.08ZM119.709 33.56C118.789 33.64 118.329 34.14 118.329 35.06C118.329 35.98 118.735 36.44 119.549 36.44C120.215 36.44 120.922 36.3333 121.669 36.12L122.029 36V33.34L119.709 33.56ZM125.888 28H128.028L130.148 36.14H130.688L132.808 28H134.968L131.168 42.3H129.028L130.228 38H128.508L125.888 28Z" fill="white"/>
<path d="M21.7069 24.6101L13.0856 15.5335L24.0544 22.1452L21.7069 24.6101ZM10.8363 15C10.3281 15.2789 9.98877 15.7875 9.98877 16.4477V34.5477C9.98877 35.2079 10.3288 35.7165 10.8363 35.9954L20.86 25.4954L10.8363 15ZM27.445 24.2531L25.1444 22.8547L22.5781 25.5L25.1444 28.1453L27.4919 26.7469C28.195 26.1608 28.195 24.8398 27.445 24.2531ZM13.0863 35.4671L24.055 28.8554L21.7075 26.3905L13.0863 35.4671Z" fill="white"/>
<rect x="0.5" y="0.5" width="139" height="49" rx="5.5" stroke="white"/>
</svg>
