<?xml version="1.0" standalone="no"?>
<!DOCTYPE svg PUBLIC "-//W3C//DTD SVG 20010904//EN"
 "http://www.w3.org/TR/2001/REC-SVG-20010904/DTD/svg10.dtd">
<svg version="1.0" xmlns="http://www.w3.org/2000/svg"
 width="938.000000pt" height="938.000000pt" viewBox="0 0 938.000000 938.000000"
 preserveAspectRatio="xMidYMid meet">
<metadata>
Created by potrace 1.14, written by Peter Selinger 2001-2017
</metadata>
<g transform="translate(0.000000,938.000000) scale(0.100000,-0.100000)"
fill="#000000" stroke="none">
<path d="M6898 7423 c-10 -3 -18 -6 -18 -8 0 -2 -35 -140 -79 -307 -43 -167
-109 -423 -147 -570 -38 -148 -71 -268 -74 -268 -3 0 -27 39 -55 86 -54 93
-68 109 -164 184 -64 50 -77 56 -97 42 -10 -6 -224 -853 -224 -886 0 -26 -19
-28 -98 -10 -42 10 -78 19 -80 20 -2 1 -19 62 -38 135 -19 74 -39 148 -43 164
-5 17 -12 42 -15 57 -9 39 -37 43 -95 13 -28 -14 -52 -25 -54 -25 -2 0 -12 18
-22 40 -15 34 -23 40 -44 38 -27 -3 -35 -23 -45 -106 -3 -26 -7 -56 -10 -67
-2 -11 -7 -47 -11 -80 -11 -87 -31 -226 -40 -280 -2 -11 -4 -22 -4 -25 -1 -3
-35 -6 -77 -7 -42 -1 -79 -5 -83 -8 -3 -4 -8 -181 -11 -393 -3 -248 -9 -387
-15 -387 -23 -1 -115 -37 -122 -48 -4 -7 -8 -46 -8 -87 l0 -75 -117 -3 c-76
-2 -119 -7 -126 -15 -5 -7 -19 -50 -31 -97 -12 -47 -78 -308 -147 -580 -69
-272 -137 -538 -150 -590 -14 -52 -26 -102 -28 -110 -2 -8 -9 -33 -15 -55 -11
-44 -16 -74 -26 -150 -9 -78 -35 -276 -41 -315 -3 -19 -7 -53 -9 -76 -2 -22
-6 -54 -9 -70 -13 -76 -48 -354 -49 -382 -1 -36 -17 15 -35 113 -12 61 -48
245 -82 409 -33 164 -62 308 -64 320 -2 12 -18 89 -35 171 -16 83 -32 161 -35
175 -11 54 -38 186 -40 195 -2 6 -6 28 -11 50 -15 77 -43 73 -97 -11 -50 -77
-47 -82 -73 101 -24 172 -25 178 -30 195 -2 8 -7 44 -10 80 -4 36 -8 67 -10
70 -2 3 -6 28 -9 55 -21 154 -26 179 -39 187 -35 22 -43 10 -113 -149 -27 -62
-52 -113 -55 -113 -4 0 -37 45 -75 99 -71 103 -104 131 -123 107 -10 -12 -39
-158 -128 -653 -26 -146 -39 -186 -39 -126 0 31 -13 254 -19 318 -2 22 -6 90
-10 150 -4 61 -8 126 -10 145 -2 19 -6 82 -10 140 -10 170 -15 204 -31 217
-23 17 -35 9 -67 -42 -16 -25 -32 -47 -36 -49 -4 -3 -6 41 -6 97 1 56 -2 110
-7 119 -6 12 -23 18 -65 20 -55 3 -57 4 -58 33 -1 17 -5 86 -9 155 -4 69 -9
143 -11 165 -2 22 -7 87 -11 145 -3 58 -8 121 -9 140 -1 19 -6 89 -10 155 -4
66 -11 125 -16 131 -12 15 -150 109 -171 117 -19 7 -37 -11 -43 -44 -8 -41
-25 -133 -30 -164 -3 -16 -8 -41 -11 -55 -3 -14 -8 -38 -10 -54 -2 -16 -5 -30
-7 -32 -3 -3 -84 293 -102 371 -15 67 -48 182 -56 198 -18 32 -50 16 -86 -43
-18 -30 -38 -65 -43 -77 -5 -12 -21 -41 -36 -65 l-27 -42 -29 64 c-130 286
-138 300 -165 296 -21 -3 -23 -10 -78 -171 -27 -77 -50 -142 -52 -144 -2 -3
-29 21 -61 52 -89 88 -88 89 -158 -125 l-39 -118 -125 0 c-86 0 -131 -4 -142
-12 -8 -7 -55 -133 -104 -280 l-89 -268 -77 0 -78 0 -24 52 c-13 29 -31 70
-40 91 -17 41 -40 56 -65 40 -14 -9 -16 -46 -16 -319 l0 -308 -97 -1 c-54 0
-100 -3 -103 -7 -8 -8 -12 -33 -20 -133 -3 -49 -8 -101 -10 -115 -2 -14 -6
-70 -10 -125 -4 -55 -9 -102 -12 -105 -2 -3 -36 -5 -74 -6 -56 0 -69 3 -70 15
0 9 -2 23 -4 31 -6 30 -37 206 -41 235 -12 89 -28 114 -61 96 -19 -10 -20 -22
-20 -318 l0 -308 -86 -235 c-47 -129 -135 -356 -196 -504 -77 -187 -108 -273
-101 -281 6 -7 11 -146 12 -349 l3 -338 4635 1 c2549 0 4645 0 4658 1 l22 0 0
1515 c0 1151 3 1520 12 1540 10 22 9 28 -3 36 -8 5 -19 9 -24 9 -8 0 -73 -173
-91 -245 -10 -36 -100 -294 -105 -299 -3 -3 -29 50 -58 118 -51 123 -72 149
-98 124 -16 -16 -21 -85 -48 -658 -3 -63 -8 -146 -10 -185 -2 -38 -7 -131 -10
-205 -7 -146 -9 -151 -92 -275 l-33 -50 0 792 0 792 -21 12 c-36 19 -47 -7
-79 -176 -17 -88 -37 -187 -45 -220 l-13 -60 -2 45 c-1 25 -3 63 -4 85 -3 37
-15 267 -21 381 -2 51 -9 69 -57 154 -14 25 -44 77 -66 115 -40 71 -55 83 -82
65 -13 -8 -15 -68 -16 -422 -1 -227 -2 -416 -3 -420 0 -5 -57 -8 -126 -8 -110
0 -125 -2 -134 -18 -6 -11 -10 -106 -10 -218 1 -109 0 -208 0 -219 -1 -18 -7
-21 -53 -20 l-53 1 1 54 c1 51 3 102 19 375 4 55 8 127 10 160 26 459 26 1436
1 1675 -2 19 -7 69 -10 110 -7 82 -14 146 -22 200 -3 19 -7 50 -10 68 -18 134
-71 320 -96 335 -13 9 -49 -3 -160 -49 -117 -50 -145 -58 -151 -47 -8 13 -89
242 -150 420 -22 65 -48 88 -72 62 -11 -13 -48 -137 -59 -200 -2 -14 -12 -54
-22 -89 -14 -51 -19 -60 -29 -47 -6 8 -54 62 -106 118 -128 140 -138 150 -163
179 -39 45 -71 67 -88 63z"/>
</g>
</svg>
