<svg width="140" height="50" viewBox="0 0 140 50" fill="none" xmlns="http://www.w3.org/2000/svg">
<g clip-path="url(#clip0_205_2173)">
<path d="M40.709 9.983C40.709 10.5183 40.5403 10.9437 40.203 11.259C39.8657 11.567 39.4147 11.765 38.85 11.853V11.897C39.51 11.985 40.0123 12.1903 40.357 12.513C40.7017 12.8357 40.874 13.2573 40.874 13.778C40.874 14.24 40.7567 14.647 40.522 14.999C40.2873 15.3437 39.9353 15.615 39.466 15.813C38.9967 16.011 38.41 16.11 37.706 16.11C37.2807 16.11 36.8737 16.077 36.485 16.011C36.1037 15.9523 35.748 15.8423 35.418 15.681V14.779C35.6453 14.889 35.8873 14.9843 36.144 15.065C36.408 15.1383 36.672 15.197 36.936 15.241C37.2 15.2777 37.453 15.296 37.695 15.296C38.399 15.296 38.9307 15.164 39.29 14.9C39.6567 14.636 39.84 14.262 39.84 13.778C39.84 13.2793 39.6273 12.9163 39.202 12.689C38.7767 12.4617 38.1827 12.348 37.42 12.348H36.298V11.523H37.365C37.8857 11.523 38.3147 11.4643 38.652 11.347C38.9967 11.2297 39.2533 11.0647 39.422 10.852C39.598 10.632 39.686 10.3753 39.686 10.082C39.686 9.686 39.5393 9.38167 39.246 9.169C38.9527 8.95633 38.5713 8.85 38.102 8.85C37.6107 8.85 37.2 8.91233 36.87 9.037C36.5473 9.16167 36.232 9.323 35.924 9.521L35.451 8.85C35.6563 8.696 35.891 8.56033 36.155 8.443C36.4263 8.31833 36.727 8.21933 37.057 8.146C37.387 8.07267 37.739 8.036 38.113 8.036C38.6777 8.036 39.1507 8.12033 39.532 8.289C39.9207 8.45767 40.214 8.68867 40.412 8.982C40.61 9.268 40.709 9.60167 40.709 9.983ZM44.6348 10.005C45.3535 10.005 45.8851 10.1627 46.2298 10.478C46.5745 10.7933 46.7468 11.2957 46.7468 11.985V16H46.0428L45.8558 15.164H45.8118C45.6431 15.3767 45.4671 15.5563 45.2838 15.703C45.1078 15.8423 44.9025 15.945 44.6678 16.011C44.4405 16.077 44.1618 16.11 43.8318 16.11C43.4798 16.11 43.1608 16.0477 42.8748 15.923C42.5961 15.7983 42.3761 15.6077 42.2148 15.351C42.0535 15.087 41.9728 14.757 41.9728 14.361C41.9728 13.7743 42.2038 13.3233 42.6658 13.008C43.1278 12.6853 43.8391 12.5093 44.7998 12.48L45.8008 12.447V12.095C45.8008 11.6037 45.6945 11.2627 45.4818 11.072C45.2691 10.8813 44.9685 10.786 44.5798 10.786C44.2718 10.786 43.9785 10.8337 43.6998 10.929C43.4211 11.017 43.1608 11.1197 42.9188 11.237L42.6218 10.511C42.8785 10.3717 43.1828 10.2543 43.5348 10.159C43.8868 10.0563 44.2535 10.005 44.6348 10.005ZM44.9208 13.151C44.1875 13.1803 43.6778 13.2977 43.3918 13.503C43.1131 13.7083 42.9738 13.998 42.9738 14.372C42.9738 14.702 43.0728 14.944 43.2708 15.098C43.4761 15.252 43.7365 15.329 44.0518 15.329C44.5505 15.329 44.9648 15.1933 45.2948 14.922C45.6248 14.6433 45.7898 14.218 45.7898 13.646V13.118L44.9208 13.151ZM52.1648 10.104V10.918H49.5358V16H48.5678V10.104H52.1648ZM56.1316 9.994C56.8576 9.994 57.4406 10.247 57.8806 10.753C58.3279 11.259 58.5516 12.0217 58.5516 13.041C58.5516 13.7083 58.4489 14.273 58.2436 14.735C58.0456 15.1897 57.7633 15.5343 57.3966 15.769C57.0373 15.9963 56.6119 16.11 56.1206 16.11C55.8199 16.11 55.5523 16.0697 55.3176 15.989C55.0829 15.9083 54.8813 15.8057 54.7126 15.681C54.5513 15.549 54.4119 15.406 54.2946 15.252H54.2286C54.2433 15.3767 54.2579 15.5343 54.2726 15.725C54.2873 15.9157 54.2946 16.0807 54.2946 16.22V18.64H53.3266V10.104H54.1186L54.2506 10.907H54.2946C54.4119 10.7383 54.5513 10.5843 54.7126 10.445C54.8813 10.3057 55.0793 10.1957 55.3066 10.115C55.5413 10.0343 55.8163 9.994 56.1316 9.994ZM55.9556 10.808C55.5596 10.808 55.2406 10.885 54.9986 11.039C54.7566 11.1857 54.5806 11.4093 54.4706 11.71C54.3606 12.0107 54.3019 12.392 54.2946 12.854V13.041C54.2946 13.525 54.3459 13.9357 54.4486 14.273C54.5513 14.6103 54.7236 14.867 54.9656 15.043C55.2149 15.219 55.5523 15.307 55.9776 15.307C56.3369 15.307 56.6303 15.208 56.8576 15.01C57.0923 14.812 57.2646 14.5443 57.3746 14.207C57.4919 13.8623 57.5506 13.47 57.5506 13.03C57.5506 12.3553 57.4186 11.8163 57.1546 11.413C56.8979 11.0097 56.4983 10.808 55.9556 10.808ZM59.0628 10.104H60.0968L61.3728 13.459C61.4461 13.657 61.5121 13.8477 61.5708 14.031C61.6368 14.2143 61.6954 14.394 61.7468 14.57C61.7981 14.7387 61.8384 14.9037 61.8678 15.065H61.9118C61.9558 14.8817 62.0254 14.6433 62.1208 14.35C62.2161 14.0493 62.3151 13.7487 62.4178 13.448L63.6168 10.104H64.6618L62.1208 16.814C61.9814 17.1807 61.8164 17.4997 61.6258 17.771C61.4424 18.0497 61.2151 18.2623 60.9438 18.409C60.6798 18.563 60.3571 18.64 59.9758 18.64C59.7998 18.64 59.6458 18.629 59.5138 18.607C59.3818 18.5923 59.2681 18.574 59.1728 18.552V17.782C59.2534 17.7967 59.3488 17.8113 59.4588 17.826C59.5761 17.8407 59.6971 17.848 59.8218 17.848C60.0491 17.848 60.2434 17.804 60.4048 17.716C60.5734 17.6353 60.7164 17.5143 60.8338 17.353C60.9511 17.199 61.0501 17.0157 61.1308 16.803L61.4388 16.022L59.0628 10.104ZM67.1452 9.994C67.5925 9.994 67.9812 10.0563 68.3112 10.181C68.6412 10.2983 68.8978 10.4743 69.0812 10.709C69.2645 10.9363 69.3562 11.215 69.3562 11.545C69.3562 11.9043 69.2572 12.1903 69.0592 12.403C68.8612 12.6083 68.5898 12.7587 68.2452 12.854V12.898C68.4798 12.964 68.6962 13.0557 68.8942 13.173C69.0922 13.2903 69.2498 13.4443 69.3672 13.635C69.4918 13.8257 69.5542 14.0713 69.5542 14.372C69.5542 14.6947 69.4625 14.988 69.2792 15.252C69.1032 15.516 68.8282 15.725 68.4542 15.879C68.0875 16.033 67.6145 16.11 67.0352 16.11C66.7565 16.11 66.4888 16.0953 66.2322 16.066C65.9828 16.0367 65.7555 15.9927 65.5502 15.934C65.3522 15.8753 65.1762 15.8057 65.0222 15.725V14.856C65.2715 14.9733 65.5648 15.0797 65.9022 15.175C66.2468 15.2703 66.6208 15.318 67.0242 15.318C67.3175 15.318 67.5815 15.285 67.8162 15.219C68.0582 15.153 68.2488 15.0503 68.3882 14.911C68.5275 14.7643 68.5972 14.5663 68.5972 14.317C68.5972 14.0897 68.5348 13.9063 68.4102 13.767C68.2855 13.6203 68.0985 13.5103 67.8492 13.437C67.6072 13.3637 67.2955 13.327 66.9142 13.327H66.1222V12.535H66.7602C67.2662 12.535 67.6695 12.469 67.9702 12.337C68.2782 12.1977 68.4322 11.963 68.4322 11.633C68.4322 11.3543 68.3148 11.1453 68.0802 11.006C67.8528 10.8667 67.5228 10.797 67.0902 10.797C66.7675 10.797 66.4815 10.83 66.2322 10.896C65.9902 10.9547 65.7225 11.0463 65.4292 11.171L65.0882 10.401C65.4035 10.2617 65.7335 10.159 66.0782 10.093C66.4228 10.027 66.7785 9.994 67.1452 9.994ZM71.8998 13.701C71.8998 13.767 71.8961 13.8623 71.8888 13.987C71.8888 14.1043 71.8851 14.2327 71.8778 14.372C71.8704 14.504 71.8631 14.6323 71.8558 14.757C71.8484 14.8743 71.8411 14.9697 71.8338 15.043L74.9908 10.104H76.1788V16H75.2768V12.524C75.2768 12.4067 75.2768 12.2527 75.2768 12.062C75.2841 11.8713 75.2914 11.6843 75.2988 11.501C75.3061 11.3103 75.3134 11.1673 75.3208 11.072L72.1858 16H70.9868V10.104H71.8998V13.701ZM82.1251 10.918H80.2001V16H79.2431V10.918H77.3401V10.104H82.1251V10.918ZM85.4561 9.994C85.9621 9.994 86.3948 10.104 86.7541 10.324C87.1208 10.544 87.3995 10.8557 87.5901 11.259C87.7881 11.655 87.8871 12.1207 87.8871 12.656V13.239H83.8501C83.8648 13.9063 84.0335 14.416 84.3561 14.768C84.6861 15.1127 85.1445 15.285 85.7311 15.285C86.1051 15.285 86.4351 15.252 86.7211 15.186C87.0145 15.1127 87.3151 15.01 87.6231 14.878V15.725C87.3225 15.857 87.0255 15.9523 86.7321 16.011C86.4388 16.077 86.0905 16.11 85.6871 16.11C85.1298 16.11 84.6348 15.9963 84.2021 15.769C83.7768 15.5417 83.4431 15.2043 83.2011 14.757C82.9665 14.3023 82.8491 13.7487 82.8491 13.096C82.8491 12.4507 82.9555 11.897 83.1681 11.435C83.3881 10.973 83.6925 10.6173 84.0811 10.368C84.4771 10.1187 84.9355 9.994 85.4561 9.994ZM85.4451 10.786C84.9831 10.786 84.6165 10.9363 84.3451 11.237C84.0811 11.5303 83.9235 11.941 83.8721 12.469H86.8751C86.8751 12.1317 86.8238 11.8383 86.7211 11.589C86.6185 11.3397 86.4608 11.1453 86.2481 11.006C86.0428 10.8593 85.7751 10.786 85.4451 10.786ZM96.5461 11.589C96.5461 11.9557 96.4361 12.2417 96.2161 12.447C95.9961 12.6523 95.7138 12.7917 95.3691 12.865V12.909C95.7358 12.9603 96.0548 13.0923 96.3261 13.305C96.5975 13.5103 96.7331 13.833 96.7331 14.273C96.7331 14.5223 96.6855 14.7533 96.5901 14.966C96.5021 15.1787 96.3628 15.362 96.1721 15.516C95.9815 15.67 95.7358 15.791 95.4351 15.879C95.1345 15.9597 94.7715 16 94.3461 16H91.8051V10.104H94.3351C94.7531 10.104 95.1271 10.1517 95.4571 10.247C95.7945 10.335 96.0585 10.489 96.2491 10.709C96.4471 10.9217 96.5461 11.215 96.5461 11.589ZM95.7321 14.273C95.7321 13.9357 95.6038 13.6937 95.3471 13.547C95.0905 13.4003 94.7128 13.327 94.2141 13.327H92.7731V15.219H94.2361C94.7201 15.219 95.0905 15.1493 95.3471 15.01C95.6038 14.8633 95.7321 14.6177 95.7321 14.273ZM95.5671 11.71C95.5671 11.4313 95.4645 11.2297 95.2591 11.105C95.0611 10.973 94.7348 10.907 94.2801 10.907H92.7731V12.524H94.1041C94.5808 12.524 94.9438 12.458 95.1931 12.326C95.4425 12.194 95.5671 11.9887 95.5671 11.71Z" fill="white"/>
<path d="M35.4 38L38.78 24.3H43.2L46.6 38H44.36L43.62 35.06H38.36L37.62 38H35.4ZM40.5 26.16L38.8 33.1H43.18L41.5 26.16H40.5ZM48.2927 42.3V28H50.4527V28.62C51.3727 28.06 52.2327 27.78 53.0327 27.78C54.3527 27.78 55.3193 28.1867 55.9327 29C56.546 29.8 56.8527 31.1533 56.8527 33.06C56.8527 34.9533 56.4993 36.2867 55.7927 37.06C55.0993 37.8333 53.9593 38.22 52.3727 38.22C51.826 38.22 51.1927 38.16 50.4727 38.04V42.3H48.2927ZM52.6527 29.72C52.026 29.72 51.3993 29.86 50.7727 30.14L50.4727 30.28V36.18C51.006 36.2867 51.5927 36.34 52.2327 36.34C53.1393 36.34 53.766 36.08 54.1127 35.56C54.4593 35.04 54.6327 34.1533 54.6327 32.9C54.6327 30.78 53.9727 29.72 52.6527 29.72ZM59.0348 42.3V28H61.1948V28.62C62.1148 28.06 62.9748 27.78 63.7748 27.78C65.0948 27.78 66.0615 28.1867 66.6748 29C67.2882 29.8 67.5948 31.1533 67.5948 33.06C67.5948 34.9533 67.2415 36.2867 66.5348 37.06C65.8415 37.8333 64.7015 38.22 63.1148 38.22C62.5682 38.22 61.9348 38.16 61.2148 38.04V42.3H59.0348ZM63.3948 29.72C62.7682 29.72 62.1415 29.86 61.5148 30.14L61.2148 30.28V36.18C61.7482 36.2867 62.3348 36.34 62.9748 36.34C63.8815 36.34 64.5082 36.08 64.8548 35.56C65.2015 35.04 65.3748 34.1533 65.3748 32.9C65.3748 30.78 64.7148 29.72 63.3948 29.72ZM78.4516 26.02C76.7582 26.02 75.9116 26.6133 75.9116 27.8C75.9116 28.4133 76.1116 28.8533 76.5116 29.12C76.9116 29.3733 77.7916 29.6933 79.1516 30.08C80.5249 30.4533 81.4916 30.9067 82.0516 31.44C82.6116 31.96 82.8916 32.7867 82.8916 33.92C82.8916 35.36 82.4782 36.44 81.6516 37.16C80.8382 37.8667 79.7249 38.22 78.3116 38.22C77.1782 38.22 75.9249 38.0867 74.5516 37.82L73.8316 37.68L74.0516 35.9C75.8516 36.14 77.2249 36.26 78.1716 36.26C79.8249 36.26 80.6516 35.5267 80.6516 34.06C80.6516 33.4867 80.4649 33.0667 80.0916 32.8C79.7182 32.52 78.8782 32.22 77.5716 31.9C76.2649 31.5667 75.2916 31.1133 74.6516 30.54C74.0116 29.9667 73.6916 29.06 73.6916 27.82C73.6916 26.58 74.0916 25.6467 74.8916 25.02C75.7049 24.38 76.8249 24.06 78.2516 24.06C79.2782 24.06 80.4916 24.18 81.8916 24.42L82.5916 24.54L82.4116 26.34C80.5449 26.1267 79.2249 26.02 78.4516 26.02ZM90.2742 29.86H87.5142V34.26C87.5142 35.0733 87.5742 35.6133 87.6942 35.88C87.8142 36.1467 88.1209 36.28 88.6142 36.28L90.2542 36.22L90.3542 37.96C89.4609 38.1333 88.7809 38.22 88.3142 38.22C87.1809 38.22 86.4009 37.96 85.9742 37.44C85.5609 36.92 85.3542 35.94 85.3542 34.5V29.86H84.0742V28H85.3542V25.1H87.5142V28H90.2742V29.86ZM92.6022 29.08C93.2955 28.2133 94.4422 27.78 96.0422 27.78C97.6422 27.78 98.7822 28.2133 99.4622 29.08C100.156 29.9467 100.502 31.2467 100.502 32.98C100.502 34.7133 100.169 36.02 99.5022 36.9C98.8355 37.78 97.6822 38.22 96.0422 38.22C94.4022 38.22 93.2489 37.78 92.5822 36.9C91.9155 36.02 91.5822 34.7133 91.5822 32.98C91.5822 31.2467 91.9222 29.9467 92.6022 29.08ZM94.2422 35.58C94.5489 36.1133 95.1489 36.38 96.0422 36.38C96.9355 36.38 97.5355 36.1133 97.8422 35.58C98.1489 35.0467 98.3022 34.1733 98.3022 32.96C98.3022 31.7467 98.1355 30.8867 97.8022 30.38C97.4822 29.8733 96.8955 29.62 96.0422 29.62C95.1889 29.62 94.5955 29.8733 94.2622 30.38C93.9422 30.8867 93.7822 31.7467 93.7822 32.96C93.7822 34.1733 93.9355 35.0467 94.2422 35.58ZM102.668 38V28H104.828V29.2C105.961 28.4667 107.094 27.9933 108.228 27.78V29.96C107.081 30.1867 106.101 30.48 105.288 30.84L104.848 31.02V38H102.668ZM116.936 36.2L117.496 36.14L117.536 37.76C116.016 38.0667 114.669 38.22 113.496 38.22C112.016 38.22 110.949 37.8133 110.296 37C109.656 36.1867 109.336 34.8867 109.336 33.1C109.336 29.5533 110.783 27.78 113.676 27.78C116.476 27.78 117.876 29.3067 117.876 32.36L117.736 33.92H111.536C111.549 34.7467 111.729 35.3533 112.076 35.74C112.423 36.1267 113.069 36.32 114.016 36.32C114.963 36.32 115.936 36.28 116.936 36.2ZM115.736 32.24C115.736 31.2533 115.576 30.5667 115.256 30.18C114.949 29.78 114.423 29.58 113.676 29.58C112.929 29.58 112.383 29.7867 112.036 30.2C111.703 30.6133 111.529 31.2933 111.516 32.24H115.736Z" fill="white"/>
<path d="M26.6018 29.1447C26.2607 29.9133 25.8569 30.6208 25.3891 31.2713C24.7514 32.158 24.2292 32.7718 23.8268 33.1127C23.2031 33.6722 22.5347 33.9587 21.8191 33.975C21.3053 33.975 20.6857 33.8324 19.9645 33.5432C19.2409 33.2553 18.5759 33.1127 17.9678 33.1127C17.3301 33.1127 16.6462 33.2553 15.9147 33.5432C15.182 33.8324 14.5918 33.9832 14.1405 33.9981C13.4543 34.0266 12.7702 33.7319 12.0874 33.1127C11.6516 32.742 11.1065 32.1064 10.4535 31.2061C9.75283 30.2446 9.17682 29.1297 8.72555 27.8587C8.24227 26.4858 8 25.1563 8 23.8692C8 22.3948 8.32665 21.1232 8.98091 20.0576C9.49511 19.2017 10.1792 18.5265 11.0353 18.0308C11.8915 17.5352 12.8166 17.2826 13.8128 17.2664C14.3579 17.2664 15.0727 17.4309 15.961 17.7541C16.8469 18.0784 17.4156 18.2428 17.665 18.2428C17.8514 18.2428 18.4833 18.0505 19.5544 17.6672C20.5674 17.3116 21.4222 17.1644 22.1226 17.2224C24.0204 17.3718 25.4461 18.1014 26.3943 19.416C24.6971 20.419 23.8575 21.8238 23.8742 23.626C23.8895 25.0297 24.4116 26.1979 25.4378 27.1254C25.9028 27.5559 26.4222 27.8886 27 28.1249C26.8747 28.4793 26.7424 28.8188 26.6018 29.1447V29.1447ZM22.2493 12.4401C22.2493 13.5404 21.8372 14.5677 21.0157 15.5185C20.0243 16.6489 18.8252 17.3021 17.5249 17.199C17.5075 17.0607 17.4988 16.9215 17.4987 16.7821C17.4987 15.7259 17.9702 14.5955 18.8074 13.6713C19.2254 13.2033 19.757 12.8142 20.4017 12.5038C21.0449 12.1981 21.6534 12.029 22.2256 12C22.2424 12.1471 22.2493 12.2942 22.2493 12.4401V12.4401Z" fill="white"/>
</g>
<rect x="0.5" y="0.5" width="139" height="49" rx="5.5" stroke="white"/>
<defs>
<clipPath id="clip0_205_2173">
<rect width="140" height="50" rx="6" fill="white"/>
</clipPath>
</defs>
</svg>
