<svg width="50" height="56" viewBox="0 0 50 56" fill="none" xmlns="http://www.w3.org/2000/svg">
<path d="M3.75 8.05V4.875C3.75 3.85 2.9 3 1.875 3C0.85 3 0 3.85 0 4.875V13C0 14.375 1.125 15.5 2.5 15.5H10.625C11.65 15.5 12.5 14.65 12.5 13.625C12.5 12.6 11.65 11.75 10.625 11.75H5.225C10.5 7.1 17.425 4.25 25 4.25C36.05 4.25 43.175 9.725 45.625 14.5C45.925 15.125 46.575 15.5 47.275 15.5C48.675 15.5 49.6 14.025 48.95 12.8C45.75 6.475 37.025 0.5 25 0.5C16.95 0.5 9.55 3.325 3.75 8.05ZM8 41.575C8 39.95 9.5 38.75 11.1 39.1L20 41.1V14.25C20 12.175 21.675 10.5 23.75 10.5C25.825 10.5 27.5 12.175 27.5 14.25V29.25H29.775C30.55 29.25 31.325 29.425 32 29.775L42.225 34.875C44.15 35.825 45.25 37.925 44.95 40.05L43.375 51.2C43.025 53.675 40.9 55.5 38.425 55.5H23.025C21.7 55.5 19.8 54.975 18.875 54.025L8.7 43.3C8.24787 42.8401 7.99619 42.2199 8 41.575Z" fill="white" fill-opacity="0.5"/>
</svg>
