<svg aria-hidden="true" style="position: absolute; width: 0; height: 0; overflow: hidden;" version="1.1" xmlns="http://www.w3.org/2000/svg" xmlns:xlink="http://www.w3.org/1999/xlink">
<defs>
<symbol id="icon-app-store" viewBox="0 0 32 32">
<path fill="#fff" style="fill: var(--color1, #fff)" d="M24.361 20.073c-0.313 0.737-0.684 1.415-1.114 2.039-0.586 0.85-1.065 1.439-1.435 1.765-0.573 0.536-1.187 0.811-1.844 0.827-0.472 0-1.041-0.137-1.704-0.414-0.665-0.276-1.276-0.413-1.834-0.413-0.586 0-1.214 0.137-1.886 0.413-0.673 0.277-1.215 0.422-1.63 0.436-0.63 0.027-1.259-0.255-1.886-0.849-0.4-0.355-0.901-0.965-1.501-1.828-0.644-0.922-1.173-1.991-1.587-3.209-0.444-1.316-0.667-2.591-0.667-3.825 0-1.413 0.3-2.633 0.901-3.654 0.472-0.821 1.101-1.468 1.887-1.943s1.636-0.717 2.552-0.733c0.501 0 1.157 0.158 1.973 0.467 0.814 0.311 1.336 0.469 1.565 0.469 0.171 0 0.752-0.184 1.736-0.552 0.931-0.341 1.716-0.482 2.359-0.426 1.743 0.143 3.053 0.843 3.924 2.103-1.559 0.962-2.331 2.308-2.315 4.036 0.014 1.346 0.494 2.466 1.436 3.355 0.427 0.413 0.904 0.732 1.435 0.958-0.115 0.34-0.237 0.665-0.366 0.978v0zM20.363 4.058c0 1.055-0.379 2.040-1.133 2.951-0.911 1.084-2.012 1.71-3.207 1.611-0.016-0.133-0.024-0.266-0.024-0.4 0-1.013 0.433-2.096 1.202-2.982 0.384-0.449 0.872-0.822 1.465-1.119 0.591-0.293 1.15-0.455 1.676-0.483 0.015 0.141 0.022 0.282 0.022 0.422v0z"></path>
<path fill="none" stroke="#000" style="stroke: var(--color2, #000)" stroke-linejoin="miter" stroke-linecap="butt" stroke-miterlimit="4" stroke-width="0.7273" d="M3.636 0.364h24.727c1.807 0 3.273 1.465 3.273 3.273v24.727c0 1.807-1.465 3.273-3.273 3.273h-24.727c-1.807 0-3.273-1.465-3.273-3.273v-24.727c0-1.807 1.465-3.273 3.273-3.273z"></path>
</symbol>
<symbol id="icon-burger-menu" viewBox="0 0 32 32">
<path fill="none" stroke="#fff" style="stroke: var(--color1, #fff)" stroke-linejoin="miter" stroke-linecap="round" stroke-miterlimit="4" stroke-width="1.4545" d="M10.136 20.727l11.314-11.314"></path>
<path fill="none" stroke="#fff" style="stroke: var(--color1, #fff)" stroke-linejoin="miter" stroke-linecap="round" stroke-miterlimit="4" stroke-width="1.4545" d="M10.359 9.576l11.314 11.314"></path>
<path fill="none" stroke="#000" style="stroke: var(--color2, #000)" stroke-linejoin="miter" stroke-linecap="butt" stroke-miterlimit="4" stroke-width="0.7273" d="M3.636 0.364h24.727c1.807 0 3.273 1.465 3.273 3.273v24.727c0 1.807-1.465 3.273-3.273 3.273h-24.727c-1.807 0-3.273-1.465-3.273-3.273v-24.727c0-1.807 1.465-3.273 3.273-3.273z"></path>
</symbol>
<symbol id="icon-google-play" viewBox="0 0 32 32">
<path fill="#fff" style="fill: var(--color1, #fff)" d="M18.362 15.26l-7.524-7.544 9.573 5.496-2.049 2.049zM8.875 7.273c-0.443 0.232-0.74 0.655-0.74 1.203v15.044c0 0.549 0.297 0.971 0.74 1.203l8.748-8.727-8.748-8.723zM23.37 14.964l-2.008-1.162-2.24 2.199 2.24 2.199 2.049-1.162c0.614-0.487 0.614-1.585-0.041-2.073zM10.839 24.284l9.573-5.495-2.049-2.049-7.524 7.544z"></path>
<path fill="none" stroke="#000" style="stroke: var(--color2, #000)" stroke-linejoin="miter" stroke-linecap="butt" stroke-miterlimit="4" stroke-width="0.7273" d="M3.636 0.364h24.727c1.807 0 3.273 1.465 3.273 3.273v24.727c0 1.807-1.465 3.273-3.273 3.273h-24.727c-1.807 0-3.273-1.465-3.273-3.273v-24.727c0-1.807 1.465-3.273 3.273-3.273z"></path>
</symbol>
</defs>
</svg>
